<svg width="195" height="52" viewBox="0 0 195 52" fill="none" xmlns="http://www.w3.org/2000/svg">
<path d="M14.7927 37.5329C11.9657 37.5329 9.41805 36.9552 7.14983 35.7998C4.91448 34.6115 3.15579 32.9774 1.87375 30.8978C0.624583 28.8181 0 26.4579 0 23.817C0 21.1762 0.624583 18.816 1.87375 16.7363C3.15579 14.6566 4.91448 13.0391 7.14983 11.8838C9.41805 10.6954 11.9657 10.1012 14.7927 10.1012C17.5869 10.1012 20.0195 10.6954 22.0905 11.8838C24.1944 13.0391 25.7229 14.7062 26.6763 16.8848L20.7098 20.1034C19.3292 17.6606 17.3404 16.4392 14.7434 16.4392C12.7382 16.4392 11.0781 17.0994 9.76321 18.4198C8.4483 19.7403 7.79085 21.5393 7.79085 23.817C7.79085 26.0948 8.4483 27.8938 9.76321 29.2143C11.0781 30.5347 12.7382 31.1949 14.7434 31.1949C17.3733 31.1949 19.3621 29.9735 20.7098 27.5307L26.6763 30.7988C25.7229 32.9114 24.1944 34.5619 22.0905 35.7503C20.0195 36.9387 17.5869 37.5329 14.7927 37.5329Z" fill="white"/>
<path d="M43.3913 37.5329C40.5971 37.5329 38.0823 36.9552 35.847 35.7998C33.6445 34.6115 31.9187 32.9774 30.6695 30.8978C29.4204 28.8181 28.7958 26.4579 28.7958 23.817C28.7958 21.1762 29.4204 18.816 30.6695 16.7363C31.9187 14.6566 33.6445 13.0391 35.847 11.8838C38.0823 10.6954 40.5971 10.1012 43.3913 10.1012C46.1855 10.1012 48.6838 10.6954 50.8863 11.8838C53.0888 13.0391 54.8146 14.6566 56.0638 16.7363C57.3129 18.816 57.9375 21.1762 57.9375 23.817C57.9375 26.4579 57.3129 28.8181 56.0638 30.8978C54.8146 32.9774 53.0888 34.6115 50.8863 35.7998C48.6838 36.9552 46.1855 37.5329 43.3913 37.5329ZM43.3913 31.1949C45.3637 31.1949 46.9744 30.5347 48.2236 29.2143C49.5056 27.8608 50.1467 26.0618 50.1467 23.817C50.1467 21.5723 49.5056 19.7898 48.2236 18.4693C46.9744 17.1159 45.3637 16.4392 43.3913 16.4392C41.4189 16.4392 39.7917 17.1159 38.5097 18.4693C37.2276 19.7898 36.5866 21.5723 36.5866 23.817C36.5866 26.0618 37.2276 27.8608 38.5097 29.2143C39.7917 30.5347 41.4189 31.1949 43.3913 31.1949Z" fill="white"/>
<path d="M79.2032 10.1012C82.4905 10.1012 85.1368 11.0915 87.142 13.0721C89.1801 15.0528 90.1992 17.9907 90.1992 21.8859V37.1368H82.5069V23.0743C82.5069 20.9616 82.0467 19.3936 81.1263 18.3703C80.2058 17.314 78.8745 16.7858 77.1322 16.7858C75.1927 16.7858 73.6477 17.3965 72.4972 18.6179C71.3466 19.8063 70.7714 21.5888 70.7714 23.9656V37.1368H63.0791V10.4973H70.4262V13.6168C71.4453 12.4945 72.7109 11.6362 74.223 11.042C75.7352 10.4148 77.3952 10.1012 79.2032 10.1012Z" fill="white"/>
<path d="M105.604 11.0915H112.408V17.0334H105.801V37.1368H98.1087V17.0334H94.016V11.0915H98.1087V9.90314C98.1087 6.86618 98.9962 4.45641 100.771 2.67385C102.579 0.891282 105.111 0 108.365 0C109.516 0 110.6 0.132042 111.619 0.396126C112.671 0.6272 113.542 0.97381 114.233 1.43596L112.211 7.03123C111.324 6.40403 110.288 6.09043 109.105 6.09043C106.771 6.09043 105.604 7.37784 105.604 9.95265V11.0915Z" fill="white"/>
<path d="M141.889 23.9161C141.889 24.0151 141.84 24.7083 141.742 25.9957H121.673C122.034 27.6463 122.889 28.9502 124.237 29.9075C125.585 30.8648 127.261 31.3434 129.266 31.3434C130.647 31.3434 131.863 31.1454 132.915 30.7492C134 30.3201 135.003 29.6599 135.923 28.7686L140.016 33.225C137.517 36.0969 133.868 37.5329 129.069 37.5329C126.078 37.5329 123.431 36.9552 121.13 35.7998C118.829 34.6115 117.054 32.9774 115.805 30.8978C114.556 28.8181 113.931 26.4579 113.931 23.817C113.931 21.2092 114.539 18.8655 115.756 16.7858C117.005 14.6731 118.698 13.0391 120.834 11.8838C123.004 10.6954 125.42 10.1012 128.083 10.1012C130.68 10.1012 133.03 10.6624 135.134 11.7847C137.238 12.9071 138.882 14.5246 140.065 16.6373C141.281 18.7169 141.889 21.1432 141.889 23.9161ZM128.132 15.944C126.39 15.944 124.927 16.4392 123.744 17.4295C122.56 18.4198 121.837 19.7733 121.574 21.4898H134.641C134.378 19.8063 133.655 18.4693 132.471 17.479C131.288 16.4557 129.842 15.944 128.132 15.944Z" fill="white"/>
<path d="M155.936 37.5329C153.733 37.5329 151.58 37.2688 149.476 36.7406C147.372 36.1795 145.696 35.4862 144.447 34.661L147.011 29.1152C148.194 29.8745 149.624 30.5017 151.301 30.9968C152.977 31.459 154.621 31.69 156.231 31.69C159.486 31.69 161.113 30.8813 161.113 29.2638C161.113 28.5045 160.669 27.9599 159.782 27.6298C158.894 27.2996 157.53 27.0191 155.689 26.788C153.519 26.4579 151.728 26.0783 150.314 25.6491C148.901 25.22 147.668 24.4607 146.616 23.3714C145.597 22.2821 145.088 20.7306 145.088 18.7169C145.088 17.0334 145.564 15.5479 146.518 14.2605C147.504 12.9401 148.917 11.9168 150.758 11.1905C152.632 10.4643 154.834 10.1012 157.366 10.1012C159.239 10.1012 161.097 10.3158 162.938 10.7449C164.811 11.141 166.356 11.7022 167.573 12.4284L165.008 17.9247C162.675 16.6043 160.127 15.944 157.366 15.944C155.722 15.944 154.489 16.1751 153.667 16.6373C152.846 17.0994 152.435 17.6936 152.435 18.4198C152.435 19.2451 152.878 19.8228 153.766 20.1529C154.654 20.483 156.067 20.7966 158.007 21.0937C160.176 21.4568 161.951 21.8529 163.332 22.2821C164.713 22.6782 165.912 23.4209 166.932 24.5103C167.951 25.5996 168.46 27.1181 168.46 29.0657C168.46 30.7162 167.967 32.1852 166.981 33.4726C165.995 34.76 164.548 35.7668 162.642 36.4931C160.768 37.1863 158.533 37.5329 155.936 37.5329Z" fill="white"/>
<path d="M182.131 37.5329C179.929 37.5329 177.775 37.2688 175.672 36.7406C173.568 36.1795 171.891 35.4862 170.642 34.661L173.206 29.1152C174.39 29.8745 175.82 30.5017 177.496 30.9968C179.173 31.459 180.816 31.69 182.427 31.69C185.681 31.69 187.309 30.8813 187.309 29.2638C187.309 28.5045 186.865 27.9599 185.977 27.6298C185.09 27.2996 183.725 27.0191 181.885 26.788C179.715 26.4579 177.923 26.0783 176.51 25.6491C175.096 25.22 173.864 24.4607 172.812 23.3714C171.793 22.2821 171.283 20.7306 171.283 18.7169C171.283 17.0334 171.76 15.5479 172.713 14.2605C173.699 12.9401 175.113 11.9168 176.954 11.1905C178.827 10.4643 181.03 10.1012 183.561 10.1012C185.435 10.1012 187.292 10.3158 189.133 10.7449C191.007 11.141 192.552 11.7022 193.768 12.4284L191.204 17.9247C188.87 16.6043 186.322 15.944 183.561 15.944C181.917 15.944 180.685 16.1751 179.863 16.6373C179.041 17.0994 178.63 17.6936 178.63 18.4198C178.63 19.2451 179.074 19.8228 179.961 20.1529C180.849 20.483 182.263 20.7966 184.202 21.0937C186.372 21.4568 188.147 21.8529 189.527 22.2821C190.908 22.6782 192.108 23.4209 193.127 24.5103C194.146 25.5996 194.656 27.1181 194.656 29.0657C194.656 30.7162 194.163 32.1852 193.176 33.4726C192.19 34.76 190.744 35.7668 188.837 36.4931C186.963 37.1863 184.728 37.5329 182.131 37.5329Z" fill="white"/>
<path d="M63.3576 50.3319C62.9169 50.3319 62.5214 50.2355 62.1711 50.0426C61.8265 49.8497 61.5553 49.5802 61.3575 49.2341C61.1598 48.8823 61.0609 48.488 61.0609 48.0511C61.0609 47.6143 61.1598 47.2228 61.3575 46.8767C61.5553 46.5306 61.8265 46.2611 62.1711 46.0682C62.5214 45.8753 62.9169 45.7788 63.3576 45.7788C63.7418 45.7788 64.0837 45.8554 64.3831 46.0086C64.6882 46.1561 64.9283 46.3746 65.1035 46.6639L64.6543 46.9703C64.5074 46.749 64.321 46.5845 64.095 46.4767C63.869 46.3632 63.6232 46.3065 63.3576 46.3065C63.0356 46.3065 62.7446 46.3802 62.4847 46.5278C62.2305 46.6696 62.0299 46.8738 61.883 47.1405C61.7417 47.4072 61.6711 47.7107 61.6711 48.0511C61.6711 48.3972 61.7417 48.7036 61.883 48.9703C62.0299 49.2313 62.2305 49.4355 62.4847 49.583C62.7446 49.7249 63.0356 49.7958 63.3576 49.7958C63.6232 49.7958 63.869 49.7419 64.095 49.6341C64.321 49.5263 64.5074 49.3618 64.6543 49.1405L65.1035 49.4469C64.9283 49.7362 64.6882 49.9575 64.3831 50.1107C64.078 50.2582 63.7362 50.3319 63.3576 50.3319Z" fill="white"/>
<path d="M68.0332 50.3319C67.6038 50.3319 67.2168 50.2355 66.8721 50.0426C66.5275 49.844 66.2563 49.5717 66.0585 49.2256C65.8608 48.8795 65.7619 48.488 65.7619 48.0511C65.7619 47.6143 65.8608 47.2228 66.0585 46.8767C66.2563 46.5306 66.5275 46.2611 66.8721 46.0682C67.2168 45.8753 67.6038 45.7788 68.0332 45.7788C68.4626 45.7788 68.8496 45.8753 69.1943 46.0682C69.5389 46.2611 69.8073 46.5306 69.9994 46.8767C70.1972 47.2228 70.296 47.6143 70.296 48.0511C70.296 48.488 70.1972 48.8795 69.9994 49.2256C69.8073 49.5717 69.5389 49.844 69.1943 50.0426C68.8496 50.2355 68.4626 50.3319 68.0332 50.3319ZM68.0332 49.7958C68.3496 49.7958 68.6321 49.7249 68.8807 49.583C69.135 49.4355 69.3327 49.2284 69.474 48.9618C69.6152 48.6951 69.6858 48.3916 69.6858 48.0511C69.6858 47.7107 69.6152 47.4072 69.474 47.1405C69.3327 46.8738 69.135 46.6696 68.8807 46.5278C68.6321 46.3802 68.3496 46.3065 68.0332 46.3065C67.7168 46.3065 67.4315 46.3802 67.1772 46.5278C66.9286 46.6696 66.7309 46.8738 66.584 47.1405C66.4427 47.4072 66.3721 47.7107 66.3721 48.0511C66.3721 48.3916 66.4427 48.6951 66.584 48.9618C66.7309 49.2284 66.9286 49.4355 67.1772 49.583C67.4315 49.7249 67.7168 49.7958 68.0332 49.7958Z" fill="white"/>
<path d="M73.7958 45.7788C74.3552 45.7788 74.7987 45.9434 75.1264 46.2724C75.4597 46.5958 75.6264 47.0696 75.6264 47.6937V50.2894H75.0247V47.7533C75.0247 47.288 74.9089 46.9334 74.6772 46.6895C74.4456 46.4455 74.115 46.3235 73.6856 46.3235C73.2054 46.3235 72.824 46.4682 72.5415 46.7575C72.2647 47.0412 72.1262 47.4355 72.1262 47.9405V50.2894H71.5245V45.8129H72.1008V46.6384C72.2647 46.3661 72.4907 46.1561 72.7788 46.0086C73.0726 45.8554 73.4116 45.7788 73.7958 45.7788Z" fill="white"/>
<path d="M78.7347 44.4427C78.4748 44.4427 78.277 44.5136 78.1414 44.6554C78.0115 44.7973 77.9465 45.0072 77.9465 45.2852V45.8129H79.3195V46.3235H77.9635V50.2894H77.3617V46.3235H76.5651V45.8129H77.3617V45.2597C77.3617 44.8512 77.4776 44.5278 77.7092 44.2895C77.9465 44.0512 78.2799 43.932 78.7093 43.932C78.8788 43.932 79.0426 43.9576 79.2008 44.0086C79.359 44.054 79.4918 44.1221 79.5991 44.2129L79.3957 44.664C79.2206 44.5164 79.0002 44.4427 78.7347 44.4427Z" fill="white"/>
<path d="M83.939 48.2384H80.21C80.2439 48.7036 80.4219 49.0809 80.7439 49.3703C81.066 49.6539 81.4728 49.7958 81.9643 49.7958C82.2412 49.7958 82.4954 49.7476 82.7271 49.6511C82.9587 49.549 83.1593 49.4015 83.3288 49.2086L83.6678 49.6C83.4701 49.8383 83.2215 50.0199 82.922 50.1447C82.6282 50.2695 82.3033 50.3319 81.9474 50.3319C81.4897 50.3319 81.0829 50.2355 80.727 50.0426C80.3767 49.844 80.1027 49.5717 79.9049 49.2256C79.7072 48.8795 79.6083 48.488 79.6083 48.0511C79.6083 47.6143 79.7015 47.2228 79.888 46.8767C80.0801 46.5306 80.34 46.2611 80.6677 46.0682C81.001 45.8753 81.3739 45.7788 81.7864 45.7788C82.1988 45.7788 82.5689 45.8753 82.8966 46.0682C83.2243 46.2611 83.4814 46.5306 83.6678 46.8767C83.8543 47.2171 83.9475 47.6086 83.9475 48.0511L83.939 48.2384ZM81.7864 46.298C81.357 46.298 80.9954 46.437 80.7016 46.715C80.4134 46.9873 80.2496 47.3448 80.21 47.7873H83.3712C83.3316 47.3448 83.165 46.9873 82.8712 46.715C82.583 46.437 82.2214 46.298 81.7864 46.298Z" fill="white"/>
<path d="M85.7486 46.6895C85.8898 46.3887 86.0989 46.1618 86.3757 46.0086C86.6582 45.8554 87.0057 45.7788 87.4181 45.7788V46.3661L87.2741 46.3575C86.8051 46.3575 86.4379 46.5022 86.1723 46.7916C85.9068 47.0809 85.774 47.4866 85.774 48.0086V50.2894H85.1723V45.8129H85.7486V46.6895Z" fill="white"/>
<path d="M92.3478 48.2384H88.6188C88.6527 48.7036 88.8307 49.0809 89.1527 49.3703C89.4748 49.6539 89.8816 49.7958 90.3731 49.7958C90.65 49.7958 90.9042 49.7476 91.1359 49.6511C91.3675 49.549 91.5681 49.4015 91.7376 49.2086L92.0766 49.6C91.8789 49.8383 91.6303 50.0199 91.3308 50.1447C91.037 50.2695 90.7121 50.3319 90.3562 50.3319C89.8985 50.3319 89.4917 50.2355 89.1358 50.0426C88.7855 49.844 88.5114 49.5717 88.3137 49.2256C88.1159 48.8795 88.0171 48.488 88.0171 48.0511C88.0171 47.6143 88.1103 47.2228 88.2968 46.8767C88.4889 46.5306 88.7488 46.2611 89.0765 46.0682C89.4098 45.8753 89.7827 45.7788 90.1952 45.7788C90.6076 45.7788 90.9777 45.8753 91.3054 46.0682C91.6331 46.2611 91.8902 46.5306 92.0766 46.8767C92.2631 47.2171 92.3563 47.6086 92.3563 48.0511L92.3478 48.2384ZM90.1952 46.298C89.7658 46.298 89.4042 46.437 89.1104 46.715C88.8222 46.9873 88.6583 47.3448 88.6188 47.7873H91.78C91.7404 47.3448 91.5738 46.9873 91.28 46.715C90.9918 46.437 90.6302 46.298 90.1952 46.298Z" fill="white"/>
<path d="M95.8524 45.7788C96.4117 45.7788 96.8552 45.9434 97.1829 46.2724C97.5163 46.5958 97.683 47.0696 97.683 47.6937V50.2894H97.0812V47.7533C97.0812 47.288 96.9654 46.9334 96.7338 46.6895C96.5021 46.4455 96.1716 46.3235 95.7422 46.3235C95.2619 46.3235 94.8806 46.4682 94.5981 46.7575C94.3212 47.0412 94.1828 47.4355 94.1828 47.9405V50.2894H93.5811V45.8129H94.1574V46.6384C94.3212 46.3661 94.5472 46.1561 94.8354 46.0086C95.1292 45.8554 95.4682 45.7788 95.8524 45.7788Z" fill="white"/>
<path d="M101.181 50.3319C100.74 50.3319 100.344 50.2355 99.9942 50.0426C99.6495 49.8497 99.3783 49.5802 99.1806 49.2341C98.9828 48.8823 98.884 48.488 98.884 48.0511C98.884 47.6143 98.9828 47.2228 99.1806 46.8767C99.3783 46.5306 99.6495 46.2611 99.9942 46.0682C100.344 45.8753 100.74 45.7788 101.181 45.7788C101.565 45.7788 101.907 45.8554 102.206 46.0086C102.511 46.1561 102.751 46.3746 102.927 46.6639L102.477 46.9703C102.33 46.749 102.144 46.5845 101.918 46.4767C101.692 46.3632 101.446 46.3065 101.181 46.3065C100.859 46.3065 100.568 46.3802 100.308 46.5278C100.054 46.6696 99.8529 46.8738 99.706 47.1405C99.5648 47.4072 99.4942 47.7107 99.4942 48.0511C99.4942 48.3972 99.5648 48.7036 99.706 48.9703C99.8529 49.2313 100.054 49.4355 100.308 49.583C100.568 49.7249 100.859 49.7958 101.181 49.7958C101.446 49.7958 101.692 49.7419 101.918 49.6341C102.144 49.5263 102.33 49.3618 102.477 49.1405L102.927 49.4469C102.751 49.7362 102.511 49.9575 102.206 50.1107C101.901 50.2582 101.559 50.3319 101.181 50.3319Z" fill="white"/>
<path d="M107.916 48.2384H104.187C104.221 48.7036 104.399 49.0809 104.721 49.3703C105.043 49.6539 105.449 49.7958 105.941 49.7958C106.218 49.7958 106.472 49.7476 106.704 49.6511C106.935 49.549 107.136 49.4015 107.305 49.2086L107.644 49.6C107.447 49.8383 107.198 50.0199 106.899 50.1447C106.605 50.2695 106.28 50.3319 105.924 50.3319C105.466 50.3319 105.06 50.2355 104.704 50.0426C104.353 49.844 104.079 49.5717 103.882 49.2256C103.684 48.8795 103.585 48.488 103.585 48.0511C103.585 47.6143 103.678 47.2228 103.865 46.8767C104.057 46.5306 104.317 46.2611 104.644 46.0682C104.978 45.8753 105.351 45.7788 105.763 45.7788C106.175 45.7788 106.546 45.8753 106.873 46.0682C107.201 46.2611 107.458 46.5306 107.644 46.8767C107.831 47.2171 107.924 47.6086 107.924 48.0511L107.916 48.2384ZM105.763 46.298C105.334 46.298 104.972 46.437 104.678 46.715C104.39 46.9873 104.226 47.3448 104.187 47.7873H107.348C107.308 47.3448 107.142 46.9873 106.848 46.715C106.56 46.437 106.198 46.298 105.763 46.298Z" fill="white"/>
<path d="M111.223 45.7448H112.282V50.2894H111.223V45.7448ZM111.757 44.9959C111.565 44.9959 111.404 44.9363 111.274 44.8171C111.144 44.6923 111.079 44.5391 111.079 44.3576C111.079 44.176 111.144 44.0257 111.274 43.9065C111.404 43.7817 111.565 43.7193 111.757 43.7193C111.949 43.7193 112.11 43.7789 112.24 43.898C112.37 44.0115 112.435 44.1562 112.435 44.332C112.435 44.5193 112.37 44.6781 112.24 44.8086C112.116 44.9334 111.955 44.9959 111.757 44.9959Z" fill="white"/>
<path d="M116.241 45.6937C116.811 45.6937 117.269 45.8611 117.614 46.1958C117.958 46.5306 118.131 47.027 118.131 47.6852V50.2894H117.071V47.8213C117.071 47.4242 116.978 47.1263 116.792 46.9277C116.605 46.7235 116.34 46.6214 115.995 46.6214C115.605 46.6214 115.297 46.7405 115.071 46.9788C114.845 47.2114 114.732 47.549 114.732 47.9916V50.2894H113.673V45.7448H114.681V46.332C114.856 46.1221 115.077 45.9632 115.342 45.8554C115.608 45.7476 115.907 45.6937 116.241 45.6937Z" fill="white"/>
<path d="M121.314 44.7746C120.867 44.7746 120.644 45.0186 120.644 45.5065V45.7788H121.89V46.6299H120.678V50.2894H119.619V46.6299H118.873V45.7788H119.619V45.4895C119.619 45.0015 119.76 44.6186 120.042 44.3406C120.325 44.0569 120.723 43.915 121.237 43.915C121.644 43.915 121.963 43.9973 122.195 44.1618L121.898 44.9618C121.718 44.837 121.523 44.7746 121.314 44.7746Z" fill="white"/>
<path d="M124.571 50.349C124.113 50.349 123.701 50.2497 123.333 50.0511C122.966 49.8525 122.678 49.5774 122.469 49.2256C122.266 48.8681 122.164 48.4653 122.164 48.0171C122.164 47.5689 122.266 47.1689 122.469 46.8171C122.678 46.4653 122.966 46.1902 123.333 45.9916C123.701 45.793 124.113 45.6937 124.571 45.6937C125.034 45.6937 125.449 45.793 125.817 45.9916C126.184 46.1902 126.469 46.4653 126.673 46.8171C126.882 47.1689 126.986 47.5689 126.986 48.0171C126.986 48.4653 126.882 48.8681 126.673 49.2256C126.469 49.5774 126.184 49.8525 125.817 50.0511C125.449 50.2497 125.034 50.349 124.571 50.349ZM124.571 49.4383C124.961 49.4383 125.283 49.3079 125.537 49.0469C125.791 48.7859 125.918 48.4426 125.918 48.0171C125.918 47.5916 125.791 47.2483 125.537 46.9873C125.283 46.7263 124.961 46.5958 124.571 46.5958C124.181 46.5958 123.859 46.7263 123.605 46.9873C123.356 47.2483 123.232 47.5916 123.232 48.0171C123.232 48.4426 123.356 48.7859 123.605 49.0469C123.859 49.3079 124.181 49.4383 124.571 49.4383Z" fill="white"/>
<path d="M129.008 46.4086C129.313 45.932 129.85 45.6937 130.618 45.6937V46.7065C130.528 46.6895 130.446 46.6809 130.372 46.6809C129.96 46.6809 129.638 46.8029 129.406 47.0469C129.174 47.2852 129.059 47.6313 129.059 48.0852V50.2894H127.999V45.7448H129.008V46.4086Z" fill="white"/>
<path d="M137.229 45.6937C137.799 45.6937 138.251 45.8611 138.585 46.1958C138.918 46.5249 139.085 47.0214 139.085 47.6852V50.2894H138.025V47.8213C138.025 47.4242 137.938 47.1263 137.763 46.9277C137.588 46.7235 137.336 46.6214 137.008 46.6214C136.652 46.6214 136.367 46.7405 136.152 46.9788C135.938 47.2114 135.83 47.5462 135.83 47.983V50.2894H134.771V47.8213C134.771 47.4242 134.683 47.1263 134.508 46.9277C134.333 46.7235 134.082 46.6214 133.754 46.6214C133.392 46.6214 133.104 46.7377 132.89 46.9703C132.68 47.2029 132.576 47.5405 132.576 47.983V50.2894H131.517V45.7448H132.525V46.3235C132.695 46.1192 132.906 45.9632 133.161 45.8554C133.415 45.7476 133.697 45.6937 134.008 45.6937C134.347 45.6937 134.647 45.759 134.907 45.8895C135.172 46.0143 135.381 46.2015 135.534 46.4512C135.72 46.2129 135.96 46.0285 136.254 45.898C136.548 45.7618 136.873 45.6937 137.229 45.6937Z" fill="white"/>
<path d="M142.167 45.6937C142.834 45.6937 143.343 45.8554 143.693 46.1788C144.049 46.4965 144.227 46.9788 144.227 47.6256V50.2894H143.227V49.7362C143.097 49.9348 142.91 50.088 142.667 50.1958C142.43 50.2979 142.142 50.349 141.803 50.349C141.464 50.349 141.167 50.2922 140.913 50.1788C140.659 50.0596 140.461 49.8979 140.32 49.6937C140.184 49.4837 140.116 49.2483 140.116 48.9873C140.116 48.5788 140.266 48.2525 140.566 48.0086C140.871 47.7589 141.348 47.6341 141.998 47.6341H143.167V47.566C143.167 47.2483 143.071 47.0043 142.879 46.8341C142.693 46.6639 142.413 46.5788 142.04 46.5788C141.786 46.5788 141.535 46.6185 141.286 46.698C141.043 46.7774 140.837 46.888 140.667 47.0299L140.252 46.2554C140.489 46.0739 140.775 45.9349 141.108 45.8384C141.441 45.7419 141.795 45.6937 142.167 45.6937ZM142.023 49.5745C142.289 49.5745 142.523 49.5149 142.727 49.3958C142.936 49.271 143.083 49.0951 143.167 48.8681V48.3405H142.074C141.464 48.3405 141.159 48.5419 141.159 48.9447C141.159 49.1376 141.235 49.2908 141.388 49.4043C141.54 49.5178 141.752 49.5745 142.023 49.5745Z" fill="white"/>
<path d="M148.307 50.0426C148.183 50.1447 148.03 50.2213 147.849 50.2724C147.674 50.3234 147.488 50.349 147.29 50.349C146.793 50.349 146.409 50.2185 146.137 49.9575C145.866 49.6965 145.731 49.3164 145.731 48.8171V46.6299H144.985V45.7788H145.731V44.7405H146.79V45.7788H148.002V46.6299H146.79V48.7915C146.79 49.0128 146.844 49.183 146.951 49.3022C147.058 49.4157 147.214 49.4724 147.417 49.4724C147.654 49.4724 147.852 49.41 148.01 49.2852L148.307 50.0426Z" fill="white"/>
<path d="M149.178 45.7448H150.238V50.2894H149.178V45.7448ZM149.712 44.9959C149.52 44.9959 149.359 44.9363 149.229 44.8171C149.099 44.6923 149.034 44.5391 149.034 44.3576C149.034 44.176 149.099 44.0257 149.229 43.9065C149.359 43.7817 149.52 43.7193 149.712 43.7193C149.904 43.7193 150.065 43.7789 150.195 43.898C150.325 44.0115 150.39 44.1562 150.39 44.332C150.39 44.5193 150.325 44.6781 150.195 44.8086C150.071 44.9334 149.91 44.9959 149.712 44.9959Z" fill="white"/>
<path d="M153.662 50.349C153.205 50.349 152.792 50.2497 152.425 50.0511C152.058 49.8525 151.769 49.5774 151.56 49.2256C151.357 48.8681 151.255 48.4653 151.255 48.0171C151.255 47.5689 151.357 47.1689 151.56 46.8171C151.769 46.4653 152.058 46.1902 152.425 45.9916C152.792 45.793 153.205 45.6937 153.662 45.6937C154.125 45.6937 154.541 45.793 154.908 45.9916C155.275 46.1902 155.561 46.4653 155.764 46.8171C155.973 47.1689 156.078 47.5689 156.078 48.0171C156.078 48.4653 155.973 48.8681 155.764 49.2256C155.561 49.5774 155.275 49.8525 154.908 50.0511C154.541 50.2497 154.125 50.349 153.662 50.349ZM153.662 49.4383C154.052 49.4383 154.374 49.3079 154.628 49.0469C154.883 48.7859 155.01 48.4426 155.01 48.0171C155.01 47.5916 154.883 47.2483 154.628 46.9873C154.374 46.7263 154.052 46.5958 153.662 46.5958C153.272 46.5958 152.95 46.7263 152.696 46.9873C152.447 47.2483 152.323 47.5916 152.323 48.0171C152.323 48.4426 152.447 48.7859 152.696 49.0469C152.95 49.3079 153.272 49.4383 153.662 49.4383Z" fill="white"/>
<path d="M159.659 45.6937C160.229 45.6937 160.687 45.8611 161.031 46.1958C161.376 46.5306 161.548 47.027 161.548 47.6852V50.2894H160.489V47.8213C160.489 47.4242 160.396 47.1263 160.209 46.9277C160.023 46.7235 159.757 46.6214 159.413 46.6214C159.023 46.6214 158.715 46.7405 158.489 46.9788C158.263 47.2114 158.15 47.549 158.15 47.9916V50.2894H157.091V45.7448H158.099V46.332C158.274 46.1221 158.495 45.9632 158.76 45.8554C159.026 45.7476 159.325 45.6937 159.659 45.6937Z" fill="white"/>
<path d="M166.633 50.349C166.266 50.349 165.907 50.3007 165.557 50.2043C165.206 50.1078 164.927 49.9859 164.718 49.8383L165.124 49.0298C165.328 49.166 165.571 49.2766 165.853 49.3618C166.141 49.4412 166.424 49.4809 166.701 49.4809C167.334 49.4809 167.65 49.3135 167.65 48.9788C167.65 48.8199 167.568 48.7093 167.404 48.6469C167.246 48.5845 166.989 48.5249 166.633 48.4681C166.26 48.4114 165.955 48.3462 165.718 48.2724C165.486 48.1986 165.283 48.071 165.107 47.8894C164.938 47.7022 164.853 47.444 164.853 47.115C164.853 46.6838 165.031 46.3405 165.387 46.0852C165.749 45.8242 166.235 45.6937 166.845 45.6937C167.156 45.6937 167.466 45.7306 167.777 45.8044C168.088 45.8724 168.342 45.9661 168.54 46.0852L168.133 46.8937C167.749 46.6668 167.317 46.5533 166.836 46.5533C166.526 46.5533 166.288 46.6015 166.124 46.698C165.966 46.7887 165.887 46.9107 165.887 47.0639C165.887 47.2341 165.972 47.3561 166.141 47.4299C166.317 47.4979 166.585 47.5632 166.947 47.6256C167.308 47.6823 167.605 47.7476 167.836 47.8213C168.068 47.8951 168.266 48.0199 168.43 48.1958C168.599 48.3717 168.684 48.6213 168.684 48.9447C168.684 49.3703 168.5 49.7107 168.133 49.966C167.766 50.2213 167.266 50.349 166.633 50.349Z" fill="white"/>
<path d="M173.751 45.7448L171.632 50.6553C171.434 51.149 171.194 51.4951 170.912 51.6936C170.629 51.8979 170.287 52 169.886 52C169.66 52 169.437 51.9631 169.217 51.8894C168.996 51.8156 168.816 51.7135 168.674 51.583L169.098 50.8C169.2 50.8965 169.319 50.9731 169.454 51.0298C169.595 51.0865 169.737 51.1149 169.878 51.1149C170.064 51.1149 170.217 51.0667 170.336 50.9702C170.46 50.8738 170.573 50.7121 170.675 50.4851L170.751 50.3064L168.776 45.7448H169.878L171.302 49.1064L172.734 45.7448H173.751Z" fill="white"/>
<path d="M175.754 50.349C175.386 50.349 175.027 50.3007 174.677 50.2043C174.327 50.1078 174.047 49.9859 173.838 49.8383L174.245 49.0298C174.448 49.166 174.691 49.2766 174.974 49.3618C175.262 49.4412 175.544 49.4809 175.821 49.4809C176.454 49.4809 176.771 49.3135 176.771 48.9788C176.771 48.8199 176.689 48.7093 176.525 48.6469C176.367 48.5845 176.109 48.5249 175.754 48.4681C175.381 48.4114 175.075 48.3462 174.838 48.2724C174.607 48.1986 174.403 48.071 174.228 47.8894C174.059 47.7022 173.974 47.444 173.974 47.115C173.974 46.6838 174.152 46.3405 174.508 46.0852C174.869 45.8242 175.355 45.6937 175.965 45.6937C176.276 45.6937 176.587 45.7306 176.898 45.8044C177.208 45.8724 177.463 45.9661 177.66 46.0852L177.254 46.8937C176.869 46.6668 176.437 46.5533 175.957 46.5533C175.646 46.5533 175.409 46.6015 175.245 46.698C175.087 46.7887 175.008 46.9107 175.008 47.0639C175.008 47.2341 175.092 47.3561 175.262 47.4299C175.437 47.4979 175.705 47.5632 176.067 47.6256C176.429 47.6823 176.725 47.7476 176.957 47.8213C177.189 47.8951 177.386 48.0199 177.55 48.1958C177.72 48.3717 177.804 48.6213 177.804 48.9447C177.804 49.3703 177.621 49.7107 177.254 49.966C176.886 50.2213 176.386 50.349 175.754 50.349Z" fill="white"/>
<path d="M181.437 50.0426C181.313 50.1447 181.16 50.2213 180.98 50.2724C180.804 50.3234 180.618 50.349 180.42 50.349C179.923 50.349 179.539 50.2185 179.268 49.9575C178.996 49.6965 178.861 49.3164 178.861 48.8171V46.6299H178.115V45.7788H178.861V44.7405H179.92V45.7788H181.132V46.6299H179.92V48.7915C179.92 49.0128 179.974 49.183 180.081 49.3022C180.189 49.4157 180.344 49.4724 180.547 49.4724C180.785 49.4724 180.982 49.41 181.141 49.2852L181.437 50.0426Z" fill="white"/>
<path d="M186.414 48.0426C186.414 48.1164 186.409 48.2213 186.397 48.3575H182.846C182.908 48.6923 183.069 48.9589 183.329 49.1575C183.595 49.3504 183.923 49.4469 184.312 49.4469C184.81 49.4469 185.219 49.2823 185.541 48.9532L186.109 49.6086C185.906 49.8525 185.649 50.0369 185.338 50.1617C185.027 50.2866 184.677 50.349 184.287 50.349C183.79 50.349 183.352 50.2497 182.973 50.0511C182.595 49.8525 182.301 49.5774 182.092 49.2256C181.889 48.8681 181.787 48.4653 181.787 48.0171C181.787 47.5745 181.886 47.1774 182.083 46.8256C182.287 46.4682 182.567 46.1902 182.923 45.9916C183.278 45.793 183.68 45.6937 184.126 45.6937C184.567 45.6937 184.959 45.793 185.304 45.9916C185.654 46.1845 185.925 46.4597 186.118 46.8171C186.315 47.1689 186.414 47.5774 186.414 48.0426ZM184.126 46.5448C183.787 46.5448 183.499 46.6469 183.262 46.8512C183.03 47.0497 182.889 47.3164 182.838 47.6511H185.406C185.36 47.3221 185.222 47.0554 184.99 46.8512C184.759 46.6469 184.471 46.5448 184.126 46.5448Z" fill="white"/>
<path d="M193.144 45.6937C193.715 45.6937 194.167 45.8611 194.5 46.1958C194.833 46.5249 195 47.0214 195 47.6852V50.2894H193.941V47.8213C193.941 47.4242 193.853 47.1263 193.678 46.9277C193.503 46.7235 193.251 46.6214 192.924 46.6214C192.568 46.6214 192.282 46.7405 192.068 46.9788C191.853 47.2114 191.746 47.5462 191.746 47.983V50.2894H190.686V47.8213C190.686 47.4242 190.599 47.1263 190.423 46.9277C190.248 46.7235 189.997 46.6214 189.669 46.6214C189.308 46.6214 189.019 46.7377 188.805 46.9703C188.596 47.2029 188.491 47.5405 188.491 47.983V50.2894H187.432V45.7448H188.44V46.3235C188.61 46.1192 188.822 45.9632 189.076 45.8554C189.33 45.7476 189.613 45.6937 189.923 45.6937C190.262 45.6937 190.562 45.759 190.822 45.8895C191.087 46.0143 191.296 46.2015 191.449 46.4512C191.635 46.2129 191.876 46.0285 192.169 45.898C192.463 45.7618 192.788 45.6937 193.144 45.6937Z" fill="white"/>
</svg>
