<svg width="253" height="145" viewBox="0 0 253 145" fill="none" xmlns="http://www.w3.org/2000/svg">
<path d="M19.248 48.512C15.5787 48.512 12.272 47.7653 9.328 46.272C6.42667 44.736 4.144 42.624 2.48 39.936C0.858671 37.248 0.0480042 34.1973 0.0480042 30.784C0.0480042 27.3707 0.858671 24.32 2.48 21.632C4.144 18.944 6.42667 16.8533 9.328 15.36C12.272 13.824 15.5787 13.056 19.248 13.056C22.8747 13.056 26.032 13.824 28.72 15.36C31.4507 16.8533 33.4347 19.008 34.672 21.824L26.928 25.984C25.136 22.8267 22.5547 21.248 19.184 21.248C16.5813 21.248 14.4267 22.1013 12.72 23.808C11.0133 25.5147 10.16 27.84 10.16 30.784C10.16 33.728 11.0133 36.0533 12.72 37.76C14.4267 39.4667 16.5813 40.32 19.184 40.32C22.5973 40.32 25.1787 38.7413 26.928 35.584L34.672 39.808C33.4347 42.5387 31.4507 44.672 28.72 46.208C26.032 47.744 22.8747 48.512 19.248 48.512Z" fill="white"/>
<path d="M56.367 48.512C52.7403 48.512 49.4763 47.7653 46.575 46.272C43.7163 44.736 41.4763 42.624 39.855 39.936C38.2337 37.248 37.423 34.1973 37.423 30.784C37.423 27.3707 38.2337 24.32 39.855 21.632C41.4763 18.944 43.7163 16.8533 46.575 15.36C49.4763 13.824 52.7403 13.056 56.367 13.056C59.9937 13.056 63.2363 13.824 66.095 15.36C68.9537 16.8533 71.1937 18.944 72.815 21.632C74.4363 24.32 75.247 27.3707 75.247 30.784C75.247 34.1973 74.4363 37.248 72.815 39.936C71.1937 42.624 68.9537 44.736 66.095 46.272C63.2363 47.7653 59.9937 48.512 56.367 48.512ZM56.367 40.32C58.927 40.32 61.0177 39.4667 62.639 37.76C64.303 36.0107 65.135 33.6853 65.135 30.784C65.135 27.8827 64.303 25.5787 62.639 23.872C61.0177 22.1227 58.927 21.248 56.367 21.248C53.807 21.248 51.695 22.1227 50.031 23.872C48.367 25.5787 47.535 27.8827 47.535 30.784C47.535 33.6853 48.367 36.0107 50.031 37.76C51.695 39.4667 53.807 40.32 56.367 40.32Z" fill="white"/>
<path d="M102.849 13.056C107.115 13.056 110.55 14.336 113.153 16.896C115.798 19.456 117.121 23.2533 117.121 28.288V48H107.137V29.824C107.137 27.0933 106.539 25.0667 105.345 23.744C104.15 22.3787 102.422 21.696 100.161 21.696C97.6432 21.696 95.6378 22.4853 94.1445 24.064C92.6512 25.6 91.9045 27.904 91.9045 30.976V48H81.9205V13.568H91.4565V17.6C92.7792 16.1493 94.4218 15.04 96.3845 14.272C98.3472 13.4613 100.502 13.056 102.849 13.056Z" fill="white"/>
<path d="M137.115 14.336H145.947V22.016H137.37V48H127.387V22.016H122.075V14.336H127.387V12.8C127.387 8.87467 128.538 5.76 130.842 3.456C133.189 1.152 136.475 0 140.699 0C142.192 0 143.6 0.170667 144.923 0.512001C146.288 0.810669 147.418 1.25867 148.314 1.856L145.691 9.088C144.539 8.27733 143.195 7.872 141.659 7.872C138.629 7.872 137.115 9.536 137.115 12.864V14.336Z" fill="white"/>
<path d="M184.211 30.912C184.211 31.04 184.147 31.936 184.019 33.6H157.971C158.44 35.7333 159.55 37.4187 161.299 38.656C163.048 39.8933 165.224 40.512 167.827 40.512C169.619 40.512 171.198 40.256 172.563 39.744C173.971 39.1893 175.272 38.336 176.467 37.184L181.779 42.944C178.536 46.656 173.8 48.512 167.571 48.512C163.688 48.512 160.254 47.7653 157.267 46.272C154.28 44.736 151.976 42.624 150.355 39.936C148.734 37.248 147.923 34.1973 147.923 30.784C147.923 27.4133 148.712 24.384 150.291 21.696C151.912 18.9653 154.11 16.8533 156.883 15.36C159.699 13.824 162.835 13.056 166.291 13.056C169.662 13.056 172.712 13.7813 175.443 15.232C178.174 16.6827 180.307 18.7733 181.843 21.504C183.422 24.192 184.211 27.328 184.211 30.912ZM166.355 20.608C164.094 20.608 162.195 21.248 160.659 22.528C159.123 23.808 158.184 25.5573 157.843 27.776H174.803C174.462 25.6 173.523 23.872 171.987 22.592C170.451 21.2693 168.574 20.608 166.355 20.608Z" fill="white"/>
<path d="M202.442 48.512C199.583 48.512 196.789 48.1707 194.058 47.488C191.327 46.7627 189.151 45.8667 187.53 44.8L190.858 37.632C192.394 38.6133 194.25 39.424 196.426 40.064C198.602 40.6613 200.735 40.96 202.826 40.96C207.05 40.96 209.162 39.9147 209.162 37.824C209.162 36.8427 208.586 36.1387 207.434 35.712C206.282 35.2853 204.511 34.9227 202.122 34.624C199.306 34.1973 196.981 33.7067 195.146 33.152C193.311 32.5973 191.711 31.616 190.346 30.208C189.023 28.8 188.362 26.7947 188.362 24.192C188.362 22.016 188.981 20.096 190.218 18.432C191.498 16.7253 193.333 15.4027 195.722 14.464C198.154 13.5253 201.013 13.056 204.298 13.056C206.73 13.056 209.141 13.3333 211.53 13.888C213.962 14.4 215.967 15.1253 217.546 16.064L214.218 23.168C211.189 21.4613 207.882 20.608 204.298 20.608C202.165 20.608 200.565 20.9067 199.498 21.504C198.431 22.1013 197.898 22.8693 197.898 23.808C197.898 24.8747 198.474 25.6213 199.626 26.048C200.778 26.4747 202.613 26.88 205.13 27.264C207.946 27.7333 210.25 28.2453 212.042 28.8C213.834 29.312 215.391 30.272 216.714 31.68C218.037 33.088 218.698 35.0507 218.698 37.568C218.698 39.7013 218.058 41.6 216.778 43.264C215.498 44.928 213.621 46.2293 211.146 47.168C208.714 48.064 205.813 48.512 202.442 48.512Z" fill="white"/>
<path d="M236.442 48.512C233.583 48.512 230.789 48.1707 228.058 47.488C225.327 46.7627 223.151 45.8667 221.53 44.8L224.858 37.632C226.394 38.6133 228.25 39.424 230.426 40.064C232.602 40.6613 234.735 40.96 236.826 40.96C241.05 40.96 243.162 39.9147 243.162 37.824C243.162 36.8427 242.586 36.1387 241.434 35.712C240.282 35.2853 238.511 34.9227 236.122 34.624C233.306 34.1973 230.981 33.7067 229.146 33.152C227.311 32.5973 225.711 31.616 224.346 30.208C223.023 28.8 222.362 26.7947 222.362 24.192C222.362 22.016 222.981 20.096 224.218 18.432C225.498 16.7253 227.333 15.4027 229.722 14.464C232.154 13.5253 235.013 13.056 238.298 13.056C240.73 13.056 243.141 13.3333 245.53 13.888C247.962 14.4 249.967 15.1253 251.546 16.064L248.218 23.168C245.189 21.4613 241.882 20.608 238.298 20.608C236.165 20.608 234.565 20.9067 233.498 21.504C232.431 22.1013 231.898 22.8693 231.898 23.808C231.898 24.8747 232.474 25.6213 233.626 26.048C234.778 26.4747 236.613 26.88 239.13 27.264C241.946 27.7333 244.25 28.2453 246.042 28.8C247.834 29.312 249.391 30.272 250.714 31.68C252.037 33.088 252.698 35.0507 252.698 37.568C252.698 39.7013 252.058 41.6 250.778 43.264C249.498 44.928 247.621 46.2293 245.146 47.168C242.714 48.064 239.813 48.512 236.442 48.512Z" fill="white"/>
<path d="M126.702 92.12C125.454 92.12 124.334 91.848 123.342 91.304C122.366 90.76 121.598 90 121.038 89.024C120.478 88.032 120.198 86.92 120.198 85.688C120.198 84.456 120.478 83.352 121.038 82.376C121.598 81.4 122.366 80.64 123.342 80.096C124.334 79.552 125.454 79.28 126.702 79.28C127.79 79.28 128.758 79.496 129.606 79.928C130.47 80.344 131.15 80.96 131.646 81.776L130.374 82.64C129.958 82.016 129.43 81.552 128.79 81.248C128.15 80.928 127.454 80.768 126.702 80.768C125.79 80.768 124.966 80.976 124.23 81.392C123.51 81.792 122.942 82.368 122.526 83.12C122.126 83.872 121.926 84.728 121.926 85.688C121.926 86.664 122.126 87.528 122.526 88.28C122.942 89.016 123.51 89.592 124.23 90.008C124.966 90.408 125.79 90.608 126.702 90.608C127.454 90.608 128.15 90.456 128.79 90.152C129.43 89.848 129.958 89.384 130.374 88.76L131.646 89.624C131.15 90.44 130.47 91.064 129.606 91.496C128.742 91.912 127.774 92.12 126.702 92.12Z" fill="white"/>
<path d="M139.942 92.12C138.726 92.12 137.63 91.848 136.654 91.304C135.678 90.744 134.91 89.976 134.35 89C133.79 88.024 133.51 86.92 133.51 85.688C133.51 84.456 133.79 83.352 134.35 82.376C134.91 81.4 135.678 80.64 136.654 80.096C137.63 79.552 138.726 79.28 139.942 79.28C141.158 79.28 142.254 79.552 143.23 80.096C144.206 80.64 144.966 81.4 145.51 82.376C146.07 83.352 146.35 84.456 146.35 85.688C146.35 86.92 146.07 88.024 145.51 89C144.966 89.976 144.206 90.744 143.23 91.304C142.254 91.848 141.158 92.12 139.942 92.12ZM139.942 90.608C140.838 90.608 141.638 90.408 142.342 90.008C143.062 89.592 143.622 89.008 144.022 88.256C144.422 87.504 144.622 86.648 144.622 85.688C144.622 84.728 144.422 83.872 144.022 83.12C143.622 82.368 143.062 81.792 142.342 81.392C141.638 80.976 140.838 80.768 139.942 80.768C139.046 80.768 138.238 80.976 137.518 81.392C136.814 81.792 136.254 82.368 135.838 83.12C135.438 83.872 135.238 84.728 135.238 85.688C135.238 86.648 135.438 87.504 135.838 88.256C136.254 89.008 136.814 89.592 137.518 90.008C138.238 90.408 139.046 90.608 139.942 90.608Z" fill="white"/>
<path d="M156.261 79.28C157.845 79.28 159.101 79.744 160.029 80.672C160.973 81.584 161.445 82.92 161.445 84.68V92H159.741V84.848C159.741 83.536 159.413 82.536 158.757 81.848C158.101 81.16 157.165 80.816 155.949 80.816C154.589 80.816 153.509 81.224 152.709 82.04C151.925 82.84 151.533 83.952 151.533 85.376V92H149.829V79.376H151.461V81.704C151.925 80.936 152.565 80.344 153.381 79.928C154.213 79.496 155.173 79.28 156.261 79.28Z" fill="white"/>
<path d="M170.247 75.512C169.511 75.512 168.951 75.712 168.567 76.112C168.199 76.512 168.015 77.104 168.015 77.888V79.376H171.903V80.816H168.063V92H166.359V80.816H164.103V79.376H166.359V77.816C166.359 76.664 166.687 75.752 167.343 75.08C168.015 74.408 168.959 74.072 170.175 74.072C170.655 74.072 171.119 74.144 171.567 74.288C172.015 74.416 172.391 74.608 172.695 74.864L172.119 76.136C171.623 75.72 170.999 75.512 170.247 75.512Z" fill="white"/>
<path d="M184.985 86.216H174.425C174.521 87.528 175.025 88.592 175.937 89.408C176.849 90.208 178.001 90.608 179.393 90.608C180.177 90.608 180.897 90.472 181.553 90.2C182.209 89.912 182.777 89.496 183.257 88.952L184.217 90.056C183.657 90.728 182.953 91.24 182.105 91.592C181.273 91.944 180.353 92.12 179.345 92.12C178.049 92.12 176.897 91.848 175.889 91.304C174.897 90.744 174.121 89.976 173.561 89C173.001 88.024 172.721 86.92 172.721 85.688C172.721 84.456 172.985 83.352 173.513 82.376C174.057 81.4 174.793 80.64 175.721 80.096C176.665 79.552 177.721 79.28 178.889 79.28C180.057 79.28 181.105 79.552 182.033 80.096C182.961 80.64 183.689 81.4 184.217 82.376C184.745 83.336 185.009 84.44 185.009 85.688L184.985 86.216ZM178.889 80.744C177.673 80.744 176.649 81.136 175.817 81.92C175.001 82.688 174.537 83.696 174.425 84.944H183.377C183.265 83.696 182.793 82.688 181.961 81.92C181.145 81.136 180.121 80.744 178.889 80.744Z" fill="white"/>
<path d="M190.11 81.848C190.51 81 191.102 80.36 191.886 79.928C192.686 79.496 193.67 79.28 194.838 79.28V80.936L194.43 80.912C193.102 80.912 192.062 81.32 191.31 82.136C190.558 82.952 190.182 84.096 190.182 85.568V92H188.478V79.376H190.11V81.848Z" fill="white"/>
<path d="M208.798 86.216H198.238C198.334 87.528 198.838 88.592 199.75 89.408C200.662 90.208 201.814 90.608 203.206 90.608C203.99 90.608 204.71 90.472 205.366 90.2C206.022 89.912 206.59 89.496 207.07 88.952L208.03 90.056C207.47 90.728 206.766 91.24 205.918 91.592C205.086 91.944 204.166 92.12 203.158 92.12C201.862 92.12 200.71 91.848 199.702 91.304C198.71 90.744 197.934 89.976 197.374 89C196.814 88.024 196.534 86.92 196.534 85.688C196.534 84.456 196.798 83.352 197.326 82.376C197.87 81.4 198.606 80.64 199.534 80.096C200.478 79.552 201.534 79.28 202.702 79.28C203.87 79.28 204.918 79.552 205.846 80.096C206.774 80.64 207.502 81.4 208.03 82.376C208.558 83.336 208.822 84.44 208.822 85.688L208.798 86.216ZM202.702 80.744C201.486 80.744 200.462 81.136 199.63 81.92C198.814 82.688 198.35 83.696 198.238 84.944H207.19C207.078 83.696 206.606 82.688 205.774 81.92C204.958 81.136 203.934 80.744 202.702 80.744Z" fill="white"/>
<path d="M218.722 79.28C220.306 79.28 221.562 79.744 222.49 80.672C223.434 81.584 223.906 82.92 223.906 84.68V92H222.202V84.848C222.202 83.536 221.874 82.536 221.218 81.848C220.562 81.16 219.626 80.816 218.41 80.816C217.05 80.816 215.97 81.224 215.17 82.04C214.386 82.84 213.994 83.952 213.994 85.376V92H212.29V79.376H213.922V81.704C214.386 80.936 215.026 80.344 215.842 79.928C216.674 79.496 217.634 79.28 218.722 79.28Z" fill="white"/>
<path d="M233.811 92.12C232.563 92.12 231.443 91.848 230.451 91.304C229.475 90.76 228.707 90 228.147 89.024C227.587 88.032 227.307 86.92 227.307 85.688C227.307 84.456 227.587 83.352 228.147 82.376C228.707 81.4 229.475 80.64 230.451 80.096C231.443 79.552 232.563 79.28 233.811 79.28C234.899 79.28 235.867 79.496 236.715 79.928C237.579 80.344 238.259 80.96 238.755 81.776L237.483 82.64C237.067 82.016 236.539 81.552 235.899 81.248C235.259 80.928 234.563 80.768 233.811 80.768C232.899 80.768 232.075 80.976 231.339 81.392C230.619 81.792 230.051 82.368 229.635 83.12C229.235 83.872 229.035 84.728 229.035 85.688C229.035 86.664 229.235 87.528 229.635 88.28C230.051 89.016 230.619 89.592 231.339 90.008C232.075 90.408 232.899 90.608 233.811 90.608C234.563 90.608 235.259 90.456 235.899 90.152C236.539 89.848 237.067 89.384 237.483 88.76L238.755 89.624C238.259 90.44 237.579 91.064 236.715 91.496C235.851 91.912 234.883 92.12 233.811 92.12Z" fill="white"/>
<path d="M252.884 86.216H242.324C242.42 87.528 242.924 88.592 243.836 89.408C244.748 90.208 245.9 90.608 247.292 90.608C248.076 90.608 248.796 90.472 249.452 90.2C250.108 89.912 250.676 89.496 251.156 88.952L252.116 90.056C251.556 90.728 250.852 91.24 250.004 91.592C249.172 91.944 248.252 92.12 247.244 92.12C245.948 92.12 244.796 91.848 243.788 91.304C242.796 90.744 242.02 89.976 241.46 89C240.9 88.024 240.62 86.92 240.62 85.688C240.62 84.456 240.884 83.352 241.412 82.376C241.956 81.4 242.692 80.64 243.62 80.096C244.564 79.552 245.62 79.28 246.788 79.28C247.956 79.28 249.004 79.552 249.932 80.096C250.86 80.64 251.588 81.4 252.116 82.376C252.644 83.336 252.908 84.44 252.908 85.688L252.884 86.216ZM246.788 80.744C245.572 80.744 244.548 81.136 243.716 81.92C242.9 82.688 242.436 83.696 242.324 84.944H251.276C251.164 83.696 250.692 82.688 249.86 81.92C249.044 81.136 248.02 80.744 246.788 80.744Z" fill="white"/>
<path d="M109.648 103.184H112.648V116H109.648V103.184ZM111.16 101.072C110.616 101.072 110.16 100.904 109.792 100.568C109.424 100.216 109.24 99.784 109.24 99.272C109.24 98.76 109.424 98.336 109.792 98C110.16 97.648 110.616 97.472 111.16 97.472C111.704 97.472 112.16 97.64 112.528 97.976C112.896 98.296 113.08 98.704 113.08 99.2C113.08 99.728 112.896 100.176 112.528 100.544C112.176 100.896 111.72 101.072 111.16 101.072Z" fill="white"/>
<path d="M123.857 103.04C125.473 103.04 126.769 103.512 127.745 104.456C128.721 105.4 129.209 106.8 129.209 108.656V116H126.209V109.04C126.209 107.92 125.945 107.08 125.417 106.52C124.889 105.944 124.137 105.656 123.161 105.656C122.057 105.656 121.185 105.992 120.545 106.664C119.905 107.32 119.585 108.272 119.585 109.52V116H116.585V103.184H119.441V104.84C119.937 104.248 120.561 103.8 121.313 103.496C122.065 103.192 122.913 103.04 123.857 103.04Z" fill="white"/>
<path d="M138.223 100.448C136.959 100.448 136.327 101.136 136.327 102.512V103.28H139.855V105.68H136.423V116H133.423V105.68H131.311V103.28H133.423V102.464C133.423 101.088 133.823 100.008 134.623 99.224C135.423 98.424 136.551 98.024 138.007 98.024C139.159 98.024 140.063 98.256 140.719 98.72L139.879 100.976C139.367 100.624 138.815 100.448 138.223 100.448Z" fill="white"/>
<path d="M147.447 116.168C146.151 116.168 144.983 115.888 143.943 115.328C142.903 114.768 142.087 113.992 141.495 113C140.919 111.992 140.631 110.856 140.631 109.592C140.631 108.328 140.919 107.2 141.495 106.208C142.087 105.216 142.903 104.44 143.943 103.88C144.983 103.32 146.151 103.04 147.447 103.04C148.759 103.04 149.935 103.32 150.975 103.88C152.015 104.44 152.823 105.216 153.399 106.208C153.991 107.2 154.287 108.328 154.287 109.592C154.287 110.856 153.991 111.992 153.399 113C152.823 113.992 152.015 114.768 150.975 115.328C149.935 115.888 148.759 116.168 147.447 116.168ZM147.447 113.6C148.551 113.6 149.463 113.232 150.183 112.496C150.903 111.76 151.263 110.792 151.263 109.592C151.263 108.392 150.903 107.424 150.183 106.688C149.463 105.952 148.551 105.584 147.447 105.584C146.343 105.584 145.431 105.952 144.711 106.688C144.007 107.424 143.655 108.392 143.655 109.592C143.655 110.792 144.007 111.76 144.711 112.496C145.431 113.232 146.343 113.6 147.447 113.6Z" fill="white"/>
<path d="M160.012 105.056C160.876 103.712 162.396 103.04 164.572 103.04V105.896C164.316 105.848 164.084 105.824 163.876 105.824C162.708 105.824 161.796 106.168 161.14 106.856C160.484 107.528 160.156 108.504 160.156 109.784V116H157.156V103.184H160.012V105.056Z" fill="white"/>
<path d="M183.292 103.04C184.908 103.04 186.188 103.512 187.132 104.456C188.076 105.384 188.548 106.784 188.548 108.656V116H185.548V109.04C185.548 107.92 185.3 107.08 184.804 106.52C184.308 105.944 183.596 105.656 182.668 105.656C181.66 105.656 180.852 105.992 180.244 106.664C179.636 107.32 179.332 108.264 179.332 109.496V116H176.332V109.04C176.332 107.92 176.084 107.08 175.588 106.52C175.092 105.944 174.38 105.656 173.452 105.656C172.428 105.656 171.612 105.984 171.004 106.64C170.412 107.296 170.116 108.248 170.116 109.496V116H167.116V103.184H169.972V104.816C170.452 104.24 171.052 103.8 171.772 103.496C172.492 103.192 173.292 103.04 174.172 103.04C175.132 103.04 175.98 103.224 176.716 103.592C177.468 103.944 178.06 104.472 178.492 105.176C179.02 104.504 179.7 103.984 180.532 103.616C181.364 103.232 182.284 103.04 183.292 103.04Z" fill="white"/>
<path d="M197.278 103.04C199.166 103.04 200.606 103.496 201.598 104.408C202.606 105.304 203.11 106.664 203.11 108.488V116H200.278V114.44C199.91 115 199.382 115.432 198.694 115.736C198.022 116.024 197.206 116.168 196.246 116.168C195.286 116.168 194.446 116.008 193.726 115.688C193.006 115.352 192.446 114.896 192.046 114.32C191.662 113.728 191.47 113.064 191.47 112.328C191.47 111.176 191.894 110.256 192.742 109.568C193.606 108.864 194.958 108.512 196.798 108.512H200.11V108.32C200.11 107.424 199.838 106.736 199.294 106.256C198.766 105.776 197.974 105.536 196.918 105.536C196.198 105.536 195.486 105.648 194.782 105.872C194.094 106.096 193.51 106.408 193.03 106.808L191.854 104.624C192.526 104.112 193.334 103.72 194.278 103.448C195.222 103.176 196.222 103.04 197.278 103.04ZM196.87 113.984C197.622 113.984 198.286 113.816 198.862 113.48C199.454 113.128 199.87 112.632 200.11 111.992V110.504H197.014C195.286 110.504 194.422 111.072 194.422 112.208C194.422 112.752 194.638 113.184 195.07 113.504C195.502 113.824 196.102 113.984 196.87 113.984Z" fill="white"/>
<path d="M214.664 115.304C214.312 115.592 213.88 115.808 213.368 115.952C212.872 116.096 212.344 116.168 211.784 116.168C210.376 116.168 209.288 115.8 208.52 115.064C207.752 114.328 207.368 113.256 207.368 111.848V105.68H205.256V103.28H207.368V100.352H210.368V103.28H213.8V105.68H210.368V111.776C210.368 112.4 210.52 112.88 210.824 113.216C211.128 113.536 211.568 113.696 212.144 113.696C212.816 113.696 213.376 113.52 213.824 113.168L214.664 115.304Z" fill="white"/>
<path d="M217.132 103.184H220.132V116H217.132V103.184ZM218.644 101.072C218.1 101.072 217.644 100.904 217.276 100.568C216.908 100.216 216.724 99.784 216.724 99.272C216.724 98.76 216.908 98.336 217.276 98C217.644 97.648 218.1 97.472 218.644 97.472C219.188 97.472 219.644 97.64 220.012 97.976C220.38 98.296 220.564 98.704 220.564 99.2C220.564 99.728 220.38 100.176 220.012 100.544C219.66 100.896 219.204 101.072 218.644 101.072Z" fill="white"/>
<path d="M229.83 116.168C228.534 116.168 227.366 115.888 226.326 115.328C225.286 114.768 224.47 113.992 223.878 113C223.302 111.992 223.014 110.856 223.014 109.592C223.014 108.328 223.302 107.2 223.878 106.208C224.47 105.216 225.286 104.44 226.326 103.88C227.366 103.32 228.534 103.04 229.83 103.04C231.142 103.04 232.318 103.32 233.358 103.88C234.398 104.44 235.206 105.216 235.782 106.208C236.374 107.2 236.67 108.328 236.67 109.592C236.67 110.856 236.374 111.992 235.782 113C235.206 113.992 234.398 114.768 233.358 115.328C232.318 115.888 231.142 116.168 229.83 116.168ZM229.83 113.6C230.934 113.6 231.846 113.232 232.566 112.496C233.286 111.76 233.646 110.792 233.646 109.592C233.646 108.392 233.286 107.424 232.566 106.688C231.846 105.952 230.934 105.584 229.83 105.584C228.726 105.584 227.814 105.952 227.094 106.688C226.39 107.424 226.038 108.392 226.038 109.592C226.038 110.792 226.39 111.76 227.094 112.496C227.814 113.232 228.726 113.6 229.83 113.6Z" fill="white"/>
<path d="M246.81 103.04C248.426 103.04 249.722 103.512 250.698 104.456C251.674 105.4 252.162 106.8 252.162 108.656V116H249.162V109.04C249.162 107.92 248.898 107.08 248.37 106.52C247.842 105.944 247.09 105.656 246.114 105.656C245.01 105.656 244.138 105.992 243.498 106.664C242.858 107.32 242.538 108.272 242.538 109.52V116H239.538V103.184H242.394V104.84C242.89 104.248 243.514 103.8 244.266 103.496C245.018 103.192 245.866 103.04 246.81 103.04Z" fill="white"/>
<path d="M171.803 140.168C170.763 140.168 169.747 140.032 168.755 139.76C167.763 139.488 166.971 139.144 166.379 138.728L167.531 136.448C168.107 136.832 168.795 137.144 169.595 137.384C170.411 137.608 171.211 137.72 171.995 137.72C173.787 137.72 174.683 137.248 174.683 136.304C174.683 135.856 174.451 135.544 173.987 135.368C173.539 135.192 172.811 135.024 171.803 134.864C170.747 134.704 169.883 134.52 169.211 134.312C168.555 134.104 167.979 133.744 167.483 133.232C167.003 132.704 166.763 131.976 166.763 131.048C166.763 129.832 167.267 128.864 168.275 128.144C169.299 127.408 170.675 127.04 172.403 127.04C173.283 127.04 174.163 127.144 175.043 127.352C175.923 127.544 176.643 127.808 177.203 128.144L176.051 130.424C174.963 129.784 173.739 129.464 172.379 129.464C171.499 129.464 170.827 129.6 170.363 129.872C169.915 130.128 169.691 130.472 169.691 130.904C169.691 131.384 169.931 131.728 170.411 131.936C170.907 132.128 171.667 132.312 172.691 132.488C173.715 132.648 174.555 132.832 175.211 133.04C175.867 133.248 176.427 133.6 176.891 134.096C177.371 134.592 177.611 135.296 177.611 136.208C177.611 137.408 177.091 138.368 176.051 139.088C175.011 139.808 173.595 140.168 171.803 140.168Z" fill="white"/>
<path d="M191.96 127.184L185.96 141.032C185.4 142.424 184.72 143.4 183.92 143.96C183.12 144.536 182.152 144.824 181.016 144.824C180.376 144.824 179.744 144.72 179.12 144.512C178.496 144.304 177.984 144.016 177.584 143.648L178.784 141.44C179.072 141.712 179.408 141.928 179.792 142.088C180.192 142.248 180.592 142.328 180.992 142.328C181.52 142.328 181.952 142.192 182.288 141.92C182.64 141.648 182.96 141.192 183.248 140.552L183.464 140.048L177.872 127.184H180.992L185.024 136.664L189.08 127.184H191.96Z" fill="white"/>
<path d="M197.631 140.168C196.591 140.168 195.575 140.032 194.583 139.76C193.591 139.488 192.799 139.144 192.207 138.728L193.359 136.448C193.935 136.832 194.623 137.144 195.423 137.384C196.239 137.608 197.039 137.72 197.823 137.72C199.615 137.72 200.511 137.248 200.511 136.304C200.511 135.856 200.279 135.544 199.815 135.368C199.367 135.192 198.639 135.024 197.631 134.864C196.575 134.704 195.711 134.52 195.039 134.312C194.383 134.104 193.807 133.744 193.311 133.232C192.831 132.704 192.591 131.976 192.591 131.048C192.591 129.832 193.095 128.864 194.103 128.144C195.127 127.408 196.503 127.04 198.231 127.04C199.111 127.04 199.991 127.144 200.871 127.352C201.751 127.544 202.471 127.808 203.031 128.144L201.879 130.424C200.791 129.784 199.567 129.464 198.207 129.464C197.327 129.464 196.655 129.6 196.191 129.872C195.743 130.128 195.519 130.472 195.519 130.904C195.519 131.384 195.759 131.728 196.239 131.936C196.735 132.128 197.495 132.312 198.519 132.488C199.543 132.648 200.383 132.832 201.039 133.04C201.695 133.248 202.255 133.6 202.719 134.096C203.199 134.592 203.439 135.296 203.439 136.208C203.439 137.408 202.919 138.368 201.879 139.088C200.839 139.808 199.423 140.168 197.631 140.168Z" fill="white"/>
<path d="M213.727 139.304C213.375 139.592 212.943 139.808 212.431 139.952C211.935 140.096 211.407 140.168 210.847 140.168C209.439 140.168 208.351 139.8 207.583 139.064C206.815 138.328 206.431 137.256 206.431 135.848V129.68H204.319V127.28H206.431V124.352H209.431V127.28H212.863V129.68H209.431V135.776C209.431 136.4 209.583 136.88 209.887 137.216C210.191 137.536 210.631 137.696 211.207 137.696C211.879 137.696 212.439 137.52 212.887 137.168L213.727 139.304Z" fill="white"/>
<path d="M227.821 133.664C227.821 133.872 227.805 134.168 227.773 134.552H217.717C217.893 135.496 218.349 136.248 219.085 136.808C219.837 137.352 220.765 137.624 221.869 137.624C223.277 137.624 224.437 137.16 225.349 136.232L226.957 138.08C226.381 138.768 225.653 139.288 224.773 139.64C223.893 139.992 222.901 140.168 221.797 140.168C220.389 140.168 219.149 139.888 218.077 139.328C217.005 138.768 216.173 137.992 215.581 137C215.005 135.992 214.717 134.856 214.717 133.592C214.717 132.344 214.997 131.224 215.557 130.232C216.133 129.224 216.925 128.44 217.933 127.88C218.941 127.32 220.077 127.04 221.341 127.04C222.589 127.04 223.701 127.32 224.677 127.88C225.669 128.424 226.437 129.2 226.981 130.208C227.541 131.2 227.821 132.352 227.821 133.664ZM221.341 129.44C220.381 129.44 219.565 129.728 218.893 130.304C218.237 130.864 217.837 131.616 217.693 132.56H224.965C224.837 131.632 224.445 130.88 223.789 130.304C223.133 129.728 222.317 129.44 221.341 129.44Z" fill="white"/>
<path d="M246.878 127.04C248.494 127.04 249.774 127.512 250.718 128.456C251.662 129.384 252.134 130.784 252.134 132.656V140H249.134V133.04C249.134 131.92 248.886 131.08 248.39 130.52C247.894 129.944 247.182 129.656 246.254 129.656C245.246 129.656 244.438 129.992 243.83 130.664C243.222 131.32 242.918 132.264 242.918 133.496V140H239.918V133.04C239.918 131.92 239.67 131.08 239.174 130.52C238.678 129.944 237.966 129.656 237.038 129.656C236.014 129.656 235.198 129.984 234.59 130.64C233.998 131.296 233.702 132.248 233.702 133.496V140H230.702V127.184H233.558V128.816C234.038 128.24 234.638 127.8 235.358 127.496C236.078 127.192 236.878 127.04 237.758 127.04C238.718 127.04 239.566 127.224 240.302 127.592C241.054 127.944 241.646 128.472 242.078 129.176C242.606 128.504 243.286 127.984 244.118 127.616C244.95 127.232 245.87 127.04 246.878 127.04Z" fill="white"/>
</svg>
