<svg width="393" height="289" viewBox="0 0 393 289" fill="none" xmlns="http://www.w3.org/2000/svg">
<g clip-path="url(#clip0_32_341)">
<path d="M243.242 232.354H12.377C9.83481 232.351 7.39758 231.34 5.59997 229.544C3.80237 227.747 2.79121 225.311 2.78833 222.77V57.2338C2.79121 54.6931 3.80237 52.2572 5.59997 50.4606C7.39758 48.6641 9.83481 47.6535 12.377 47.6506H243.242C245.784 47.6535 248.221 48.6641 250.019 50.4606C251.816 52.2572 252.828 54.6931 252.83 57.2338V222.77C252.828 225.311 251.816 227.747 250.019 229.544C248.221 231.34 245.784 232.351 243.242 232.354ZM12.377 52.6944C11.1728 52.6958 10.0184 53.1745 9.16687 54.0255C8.31538 54.8765 7.83641 56.0303 7.83501 57.2338V222.77C7.83636 223.974 8.31533 225.128 9.16683 225.979C10.0183 226.83 11.1728 227.308 12.377 227.31H243.242C244.446 227.308 245.6 226.83 246.452 225.979C247.303 225.128 247.782 223.974 247.784 222.77V57.2338C247.782 56.0303 247.303 54.8765 246.452 54.0255C245.6 53.1745 244.446 52.6958 243.242 52.6944H12.377Z" fill="#E6E6E6"/>
<path d="M122.903 289C133.161 289 141.478 280.689 141.478 270.436C141.478 260.183 133.161 251.872 122.903 251.872C112.644 251.872 104.328 260.183 104.328 270.436C104.328 280.689 112.644 289 122.903 289Z" fill="#E6E6E6"/>
<path d="M122.903 284.668C130.768 284.668 137.144 278.296 137.144 270.436C137.144 262.575 130.768 256.203 122.903 256.203C115.038 256.203 108.662 262.575 108.662 270.436C108.662 278.296 115.038 284.668 122.903 284.668Z" fill="white"/>
<path d="M130.037 278.209C129.952 278.209 129.867 278.193 129.789 278.16C129.71 278.127 129.639 278.079 129.579 278.019L115.308 263.757C115.192 263.635 115.128 263.472 115.13 263.303C115.133 263.134 115.201 262.972 115.32 262.853C115.44 262.733 115.601 262.665 115.771 262.663C115.94 262.661 116.103 262.724 116.225 262.841L130.496 277.103C130.586 277.193 130.648 277.309 130.673 277.435C130.698 277.56 130.685 277.691 130.636 277.809C130.587 277.927 130.504 278.029 130.397 278.1C130.291 278.171 130.165 278.209 130.037 278.209H130.037Z" fill="#F77777"/>
<path d="M130.957 271.808C131.091 271.597 131.162 271.352 131.161 271.103C131.16 270.853 131.088 270.609 130.953 270.399C129.912 268.774 128.541 267.386 126.928 266.326C125.294 265.24 123.38 264.648 121.417 264.622C120.427 264.623 119.444 264.784 118.505 265.099C118.479 265.108 118.455 265.123 118.437 265.144C118.418 265.164 118.405 265.189 118.399 265.216C118.392 265.243 118.393 265.271 118.401 265.298C118.408 265.324 118.422 265.348 118.442 265.368L120.357 267.282C120.377 267.302 120.402 267.316 120.43 267.323C120.457 267.331 120.486 267.331 120.513 267.324C121.516 267.08 122.574 267.244 123.456 267.78C124.338 268.316 124.97 269.18 125.215 270.183L125.219 270.202C125.55 271.751 126.306 273.178 127.402 274.324L128.012 274.934C128.041 274.963 128.079 274.979 128.12 274.981C128.16 274.983 128.2 274.969 128.231 274.943C129.291 274.04 130.21 272.983 130.957 271.808Z" fill="#F77777"/>
<path d="M124.313 273.44C123.802 273.44 123.295 273.34 122.823 273.144C122.351 272.949 121.922 272.662 121.561 272.301C121.199 271.94 120.912 271.511 120.717 271.039C120.521 270.568 120.421 270.062 120.421 269.551C120.421 269.548 120.421 269.544 120.421 269.541C120.429 269.201 120.37 268.863 120.247 268.546C120.124 268.229 119.939 267.94 119.703 267.695L117.778 265.77C117.749 265.741 117.71 265.724 117.669 265.723C117.628 265.721 117.589 265.735 117.557 265.762C116.517 266.663 115.595 267.694 114.815 268.829C114.669 269.039 114.588 269.288 114.583 269.545C114.579 269.801 114.65 270.053 114.789 270.269C115.813 271.895 117.171 273.285 118.774 274.347C120.411 275.438 122.332 276.024 124.3 276.033C125.3 276.031 126.293 275.873 127.244 275.565C127.271 275.557 127.295 275.542 127.314 275.521C127.333 275.501 127.346 275.476 127.353 275.449C127.359 275.422 127.359 275.394 127.351 275.367C127.344 275.34 127.329 275.316 127.31 275.296L125.385 273.373C125.365 273.354 125.34 273.339 125.313 273.332C125.286 273.324 125.258 273.324 125.23 273.331C124.93 273.404 124.622 273.44 124.313 273.44Z" fill="#F77777"/>
<path d="M52.4276 289C62.6863 289 71.0025 280.689 71.0025 270.436C71.0025 260.183 62.6863 251.872 52.4276 251.872C42.169 251.872 33.8528 260.183 33.8528 270.436C33.8528 280.689 42.169 289 52.4276 289Z" fill="#E6E6E6"/>
<path d="M52.4275 284.668C60.2924 284.668 66.6682 278.296 66.6682 270.436C66.6682 262.575 60.2924 256.203 52.4275 256.203C44.5626 256.203 38.1868 262.575 38.1868 270.436C38.1868 278.296 44.5626 284.668 52.4275 284.668Z" fill="white"/>
<path d="M57.8982 279.511C57.1069 279.511 55.9953 279.225 54.3307 278.296C52.2619 277.191 50.3727 275.778 48.7277 274.107C47.0251 272.486 45.6032 270.595 44.5201 268.509C43.0266 265.794 43.2812 264.371 43.5658 263.763C43.8943 263.098 44.4109 262.544 45.0515 262.17C45.4188 261.93 45.8075 261.723 46.2126 261.554C46.2532 261.537 46.2909 261.52 46.3245 261.505C46.4586 261.429 46.6073 261.383 46.7607 261.369C46.9141 261.355 47.0688 261.374 47.2144 261.424C47.5379 261.58 47.8258 261.8 48.06 262.072C48.9032 263.018 49.6145 264.073 50.1746 265.21C50.4048 265.603 50.5464 266.041 50.5893 266.494C50.5557 266.943 50.3739 267.368 50.0724 267.702C50.0193 267.775 49.9666 267.844 49.9156 267.911C49.607 268.317 49.5393 268.434 49.5839 268.643C49.6743 269.063 51.0443 269.428 52.1523 270.533C53.2602 271.638 53.7798 273.155 54.2018 273.245C54.4199 273.291 54.5395 273.221 54.9579 272.901C55.0179 272.856 55.0795 272.808 55.144 272.761C55.4793 272.445 55.9116 272.252 56.3707 272.212H56.3732C56.8334 272.259 57.2759 272.415 57.6647 272.665C58.7887 273.235 59.8389 273.939 60.792 274.763C61.0646 274.996 61.2862 275.283 61.4426 275.606C61.4928 275.752 61.5115 275.907 61.4976 276.061C61.4836 276.214 61.4372 276.363 61.3615 276.498C61.3465 276.531 61.3299 276.568 61.3125 276.609C61.1418 277.013 60.9343 277.401 60.6926 277.767C60.3171 278.407 59.762 278.922 59.0962 279.249C58.7219 279.426 58.3123 279.516 57.8982 279.511Z" fill="#F77777"/>
<path d="M193.924 289C204.183 289 212.499 280.689 212.499 270.436C212.499 260.183 204.183 251.872 193.924 251.872C183.666 251.872 175.349 260.183 175.349 270.436C175.349 280.689 183.666 289 193.924 289Z" fill="#E6E6E6"/>
<path d="M193.924 284.668C201.789 284.668 208.165 278.296 208.165 270.436C208.165 262.575 201.789 256.203 193.924 256.203C186.059 256.203 179.684 262.575 179.684 270.436C179.684 278.296 186.059 284.668 193.924 284.668Z" fill="white"/>
<path d="M199.113 267.778C198.941 267.778 198.776 267.846 198.655 267.968C198.533 268.089 198.465 268.254 198.465 268.426V269.723C198.465 272.229 196.432 272.964 193.924 272.964C191.417 272.964 189.384 272.229 189.384 269.723V268.426C189.384 268.254 189.315 268.089 189.194 267.968C189.072 267.846 188.907 267.778 188.735 267.778C188.563 267.778 188.398 267.846 188.276 267.968C188.155 268.089 188.086 268.254 188.086 268.426V269.723C188.088 271.157 188.618 272.541 189.575 273.609C190.532 274.678 191.849 275.358 193.276 275.518V278.15C193.276 278.322 193.344 278.487 193.466 278.609C193.587 278.73 193.752 278.798 193.924 278.798H193.924C194.096 278.798 194.261 278.73 194.383 278.609C194.504 278.487 194.573 278.322 194.573 278.15V275.518C195.999 275.358 197.316 274.678 198.273 273.609C199.23 272.541 199.76 271.157 199.762 269.723V268.426C199.762 268.254 199.694 268.089 199.572 267.968C199.45 267.846 199.285 267.778 199.113 267.778Z" fill="#F77777"/>
<path d="M193.924 271.13C193.129 271.145 192.342 270.965 191.632 270.606C191.377 270.504 191.154 270.336 190.986 270.118C190.819 269.901 190.714 269.642 190.681 269.369V266.957C190.674 266 192.115 265.221 193.899 265.218C193.908 265.218 193.916 265.218 193.924 265.218C195.696 265.207 197.148 265.969 197.168 266.919C197.168 266.932 197.168 266.944 197.168 266.957V269.369C197.177 270.335 195.726 271.123 193.924 271.13Z" fill="#F77777"/>
<path d="M243.242 230.084H12.377C10.4369 230.082 8.57693 229.31 7.20508 227.939C5.83323 226.568 5.06156 224.709 5.05933 222.77V57.2338C5.06156 55.2948 5.83323 53.4359 7.20508 52.0648C8.57693 50.6938 10.4369 49.9225 12.377 49.9203H243.242C245.182 49.9225 247.042 50.6938 248.414 52.0648C249.786 53.4359 250.557 55.2948 250.559 57.2338V222.77C250.557 224.709 249.786 226.568 248.414 227.939C247.042 229.31 245.182 230.082 243.242 230.084Z" fill="white"/>
<path d="M126.679 152.509C140.175 152.509 151.116 141.574 151.116 128.086C151.116 114.598 140.175 103.664 126.679 103.664C113.183 103.664 102.243 114.598 102.243 128.086C102.243 141.574 113.183 152.509 126.679 152.509Z" fill="#FFB8B8"/>
<path d="M99.4197 104.592C99.6044 101.787 101.46 98.9172 107.356 97.4175C107.356 97.4175 117.475 84.4858 131.225 91.2673C131.225 91.2673 137.891 90.1212 142.834 97.0334C142.834 97.0334 147.735 94.1447 149.802 99.2649C149.802 99.2649 155.55 109.709 153.434 120.362C151.318 131.015 150.235 132.344 150.235 132.344C150.235 132.344 152.932 110.309 137.397 111.837C121.862 113.365 109.354 107.905 105.836 119.859C102.915 129.786 103.283 134.942 103.283 134.942C103.283 134.942 93.5139 125.039 96.8353 117.241C98.5341 113.253 99.1347 108.917 99.4197 104.592Z" fill="#2F2E41"/>
<path d="M60.2268 229.832H195.392C194.488 219.527 193.898 211.861 193.898 209.268C193.898 197.834 184.536 185.356 184.536 185.356L181.185 183.504L153.202 174.779L145.96 165.377C145.201 164.39 144.224 163.592 143.105 163.046C141.986 162.5 140.755 162.22 139.51 162.23L116.633 162.401C114.62 162.417 112.685 163.183 111.208 164.55L97.0422 177.684L76.2651 187.6L76.2297 187.565L76.0127 187.726L72.9292 189.945L70.9459 191.378C70.9459 191.378 65.7428 197.617 61.5843 216.329C60.9586 219.144 60.5195 223.855 60.2268 229.832Z" fill="#F77777"/>
<path d="M392.431 20.919H0.568844C0.416844 20.9157 0.272191 20.853 0.165867 20.7444C0.0595422 20.6357 0 20.4898 0 20.3379C0 20.1859 0.0595422 20.04 0.165867 19.9314C0.272191 19.8228 0.416844 19.7601 0.568844 19.7568H392.431C392.583 19.7601 392.728 19.8228 392.834 19.9314C392.941 20.04 393 20.1859 393 20.3379C393 20.4898 392.941 20.6357 392.834 20.7444C392.728 20.853 392.583 20.9157 392.431 20.919Z" fill="#CACACA"/>
<path d="M13.3699 12.7838C16.8251 12.7838 19.6261 9.92205 19.6261 6.3919C19.6261 2.86175 16.8251 0 13.3699 0C9.91474 0 7.11377 2.86175 7.11377 6.3919C7.11377 9.92205 9.91474 12.7838 13.3699 12.7838Z" fill="#3F3D56"/>
<path d="M34.982 12.7838C38.4372 12.7838 41.2381 9.92205 41.2381 6.3919C41.2381 2.86175 38.4372 0 34.982 0C31.5268 0 28.7258 2.86175 28.7258 6.3919C28.7258 9.92205 31.5268 12.7838 34.982 12.7838Z" fill="#3F3D56"/>
<path d="M56.5943 12.7838C60.0495 12.7838 62.8504 9.92205 62.8504 6.3919C62.8504 2.86175 60.0495 0 56.5943 0C53.1391 0 50.3381 2.86175 50.3381 6.3919C50.3381 9.92205 53.1391 12.7838 56.5943 12.7838Z" fill="#3F3D56"/>
<path d="M379.482 3.90972H364.126C363.822 3.90304 363.533 3.77767 363.32 3.56044C363.108 3.34322 362.989 3.05143 362.989 2.74755C362.989 2.44367 363.108 2.15187 363.32 1.93465C363.533 1.71743 363.822 1.59206 364.126 1.58539H379.482C379.786 1.59206 380.076 1.71743 380.288 1.93465C380.501 2.15187 380.62 2.44367 380.62 2.74755C380.62 3.05143 380.501 3.34322 380.288 3.56044C380.076 3.77767 379.786 3.90304 379.482 3.90972Z" fill="#3F3D56"/>
<path d="M379.482 8.26783H364.126C363.822 8.26116 363.533 8.13579 363.32 7.91857C363.108 7.70135 362.989 7.40955 362.989 7.10567C362.989 6.80179 363.108 6.51 363.32 6.29278C363.533 6.07555 363.822 5.95019 364.126 5.94351H379.482C379.786 5.95019 380.076 6.07555 380.288 6.29278C380.501 6.51 380.62 6.80179 380.62 7.10567C380.62 7.40955 380.501 7.70135 380.288 7.91857C380.076 8.13579 379.786 8.26116 379.482 8.26783Z" fill="#3F3D56"/>
<path d="M379.482 12.626H364.126C363.822 12.6193 363.533 12.4939 363.32 12.2767C363.108 12.0595 362.989 11.7677 362.989 11.4638C362.989 11.1599 363.108 10.8681 363.32 10.6509C363.533 10.4337 363.822 10.3083 364.126 10.3016H379.482C379.786 10.3083 380.076 10.4337 380.288 10.6509C380.501 10.8681 380.62 11.1599 380.62 11.4638C380.62 11.7677 380.501 12.0595 380.288 12.2767C380.076 12.4939 379.786 12.6193 379.482 12.626Z" fill="#3F3D56"/>
<path d="M368.776 240.556H291.735C289.193 240.554 286.756 239.543 284.958 237.746C283.161 235.95 282.15 233.514 282.147 230.973V178.237C282.15 175.697 283.161 173.261 284.958 171.464C286.756 169.668 289.193 168.657 291.735 168.654H368.776C371.318 168.657 373.756 169.668 375.553 171.464C377.351 173.261 378.362 175.697 378.365 178.237V230.973C378.362 233.514 377.351 235.95 375.553 237.746C373.756 239.543 371.318 240.554 368.776 240.556ZM291.735 173.698C290.531 173.699 289.377 174.178 288.525 175.029C287.674 175.88 287.195 177.034 287.193 178.237V230.973C287.195 232.177 287.674 233.331 288.525 234.182C289.377 235.033 290.531 235.511 291.735 235.513H368.776C369.98 235.511 371.135 235.033 371.986 234.182C372.838 233.331 373.317 232.177 373.318 230.973V178.237C373.317 177.034 372.838 175.88 371.986 175.029C371.135 174.178 369.98 173.699 368.776 173.698H291.735Z" fill="#E6E6E6"/>
<path d="M368.776 238.287H291.735C289.795 238.285 287.935 237.513 286.563 236.142C285.191 234.771 284.42 232.912 284.417 230.973V178.237C284.42 176.298 285.191 174.439 286.563 173.068C287.935 171.697 289.795 170.926 291.735 170.924H368.776C370.716 170.926 372.576 171.697 373.948 173.068C375.32 174.439 376.091 176.298 376.094 178.237V230.973C376.091 232.912 375.32 234.771 373.948 236.142C372.576 237.513 370.716 238.285 368.776 238.287Z" fill="white"/>
<path d="M337.48 188.09C337.925 185.314 336.665 183.269 333.324 182.115C330 179.233 325.088 178.541 322.14 183.158C320.949 183.087 319.778 183.478 318.869 184.25C317.96 185.022 317.385 186.114 317.263 187.3C314.555 190.446 317.562 201.993 318.453 206.392L323.207 206.345L332.697 206.252L337.48 206.205L339.303 195.888C340.411 192.889 339.96 190.258 337.48 188.09Z" fill="#E6E6E6"/>
<path d="M354.743 231.524C355.985 230.732 357.3 230.061 358.67 229.521L345.153 213.48L336.22 211.196C336.146 211.155 336.074 211.112 336.002 211.069L320.932 211.647L320.868 211.582L311.366 216.228L297.848 231.847C299.182 232.369 300.464 233.016 301.676 233.78L300.281 239.082H309.953L312.526 235.344H312.655C312.655 235.28 312.661 235.215 312.661 235.151L314.467 232.526C314.508 234.647 314.449 236.832 314.303 239.082H344.385C344.338 237.213 344.327 235.356 344.327 233.51L347.691 238.391C347.943 238.021 348.213 237.676 348.483 237.324L349.145 239.082H356.847L355.001 232.063C354.949 231.869 354.861 231.687 354.743 231.524Z" fill="#E6E6E6"/>
<path d="M368.776 119.022H291.735C289.193 119.019 286.756 118.008 284.958 116.212C283.161 114.415 282.15 111.979 282.147 109.439V56.703C282.15 54.1623 283.161 51.7264 284.958 49.9299C286.756 48.1333 289.193 47.1227 291.735 47.1198H368.776C371.318 47.1227 373.756 48.1333 375.553 49.9299C377.351 51.7264 378.362 54.1623 378.365 56.703V109.439C378.362 111.979 377.351 114.415 375.553 116.212C373.756 118.008 371.318 119.019 368.776 119.022ZM291.735 52.1636C290.531 52.165 289.377 52.6437 288.525 53.4947C287.674 54.3457 287.195 55.4995 287.193 56.703V109.439C287.195 110.642 287.674 111.796 288.525 112.647C289.377 113.498 290.531 113.977 291.735 113.978H368.776C369.98 113.977 371.135 113.498 371.986 112.647C372.838 111.796 373.317 110.642 373.318 109.439V56.703C373.317 55.4995 372.838 54.3457 371.986 53.4947C371.135 52.6437 369.98 52.165 368.776 52.1636H291.735Z" fill="#E6E6E6"/>
<path d="M368.776 116.752H291.735C289.795 116.75 287.935 115.979 286.563 114.608C285.192 113.237 284.42 111.378 284.418 109.439V56.703C284.42 54.764 285.192 52.9051 286.563 51.5341C287.935 50.163 289.795 49.3918 291.735 49.3895H368.776C370.716 49.3918 372.576 50.163 373.948 51.5341C375.32 52.9051 376.092 54.764 376.094 56.703V109.439C376.092 111.378 375.32 113.237 373.948 114.608C372.576 115.979 370.716 116.75 368.776 116.752Z" fill="white"/>
<path d="M320.525 75.3913C320.756 77.7356 321.797 79.9262 323.469 81.5865C325.141 83.2468 327.339 84.273 329.686 84.4886C332.033 84.7043 334.382 84.0959 336.329 82.7681C338.276 81.4403 339.699 79.476 340.353 77.2131C340.682 76.8713 344.32 72.9853 343.003 69.8937C342.353 68.2165 341.99 66.4416 341.931 64.6437C341.854 63.4797 341.084 62.2886 338.637 61.6662C338.637 61.6662 334.437 56.299 328.73 59.1136C328.73 59.1136 325.963 58.6379 323.912 61.5067C323.912 61.5067 321.878 60.3078 321.02 62.4329C321.02 62.4329 318.634 66.7676 319.513 71.189C319.77 72.6078 320.108 74.0108 320.525 75.3913Z" fill="#E6E6E6"/>
<path d="M357.634 112.067C355.908 104.301 353.748 101.712 353.748 101.712L352.925 101.117L351.645 100.196L351.555 100.129L351.541 100.144L342.917 96.0281L337.038 90.577C336.425 90.0097 335.622 89.6916 334.786 89.6852L325.291 89.614C324.775 89.61 324.264 89.7259 323.799 89.9526C323.335 90.1792 322.929 90.5104 322.615 90.9202L319.609 94.8223L307.995 98.4438L306.604 99.212C306.604 99.212 302.718 104.391 302.718 109.137C302.718 110.213 302.473 113.395 302.098 117.671H358.197C358.147 115.792 357.959 113.919 357.634 112.067Z" fill="#E6E6E6"/>
<path d="M320.687 190.239H219.964C216.641 190.236 213.454 188.914 211.104 186.566C208.754 184.217 207.432 181.032 207.428 177.71V108.764C207.432 105.442 208.754 102.257 211.104 99.9086C213.454 97.5597 216.64 96.2385 219.964 96.2347H320.687C324.011 96.2385 327.197 97.5597 329.547 99.9086C331.898 102.257 333.22 105.442 333.223 108.764V177.71C333.22 181.032 331.898 184.217 329.547 186.566C327.197 188.914 324.011 190.236 320.687 190.239ZM219.964 102.829C218.39 102.831 216.88 103.457 215.767 104.569C214.654 105.682 214.028 107.19 214.026 108.764V177.71C214.028 179.284 214.654 180.792 215.767 181.905C216.88 183.018 218.39 183.643 219.964 183.645H320.687C322.262 183.643 323.771 183.018 324.884 181.905C325.997 180.792 326.624 179.284 326.625 177.71V108.764C326.624 107.19 325.997 105.682 324.884 104.569C323.771 103.457 322.262 102.831 320.687 102.829H219.964Z" fill="#E6E6E6"/>
<path d="M320.686 99.2014H219.964C217.427 99.2048 214.995 100.214 213.201 102.007C211.407 103.799 210.398 106.23 210.395 108.766V177.713C210.398 180.248 211.408 182.678 213.202 184.47C214.996 186.262 217.428 187.269 219.964 187.272H320.686C323.222 187.269 325.654 186.262 327.448 184.47C329.242 182.678 330.252 180.248 330.256 177.713V108.766C330.252 106.23 329.243 103.799 327.449 102.007C325.655 100.214 323.223 99.2048 320.686 99.2014Z" fill="white"/>
<path d="M288.045 128.025C292.389 128.025 295.91 124.505 295.91 120.163C295.91 115.822 292.389 112.302 288.045 112.302C283.7 112.302 280.179 115.822 280.179 120.163C280.179 124.505 283.7 128.025 288.045 128.025Z" fill="#2F2E41"/>
<path d="M271.886 154.738C282.891 154.738 291.812 145.821 291.812 134.823C291.812 123.824 282.891 114.908 271.886 114.908C260.881 114.908 251.96 123.824 251.96 134.823C251.96 145.821 260.881 154.738 271.886 154.738Z" fill="#2F2E41"/>
<path d="M268.424 155.949C277.367 155.949 284.616 148.703 284.616 139.766C284.616 130.828 277.367 123.583 268.424 123.583C259.481 123.583 252.232 130.828 252.232 139.766C252.232 148.703 259.481 155.949 268.424 155.949Z" fill="#9E616A"/>
<path d="M262.32 119.612C265.465 118.541 268.841 118.334 272.094 119.013C275.347 119.692 278.357 121.232 280.811 123.472C283.264 125.711 285.071 128.569 286.041 131.745C287.012 134.922 287.11 138.3 286.327 141.528C277.823 141.757 269.018 141.421 261.116 136.426L260.193 131.013L257.891 135.712C255.038 136.199 252.214 136.519 250.034 133.953C250.647 130.697 252.104 127.659 254.26 125.142C256.416 122.626 259.195 120.719 262.32 119.612Z" fill="#2F2E41"/>
<path d="M299.833 100.924C305.684 99.6725 312.091 102.296 315.662 107.095C319.233 111.893 319.951 118.57 317.811 124.154C315.628 129.851 310.915 134.127 306.508 138.348C302.101 142.569 297.664 147.282 296.342 153.237C295.389 157.527 296.177 162.019 298.533 165.729C300.89 169.438 304.622 172.062 308.911 173.026C303.392 174.072 297.643 175.112 292.223 173.636C286.802 172.161 281.845 167.364 282.156 161.758C282.38 157.718 285.139 154.345 287.539 151.087C291.448 145.778 294.703 140.018 297.231 133.93C298.438 131.024 299.493 127.922 299.154 124.794C298.849 122.464 297.802 120.294 296.169 118.604C294.536 116.914 292.402 115.793 290.083 115.406L288.636 113.376C289.119 107.415 293.982 102.176 299.833 100.924Z" fill="#2F2E41"/>
<path d="M305.574 186.826C304.525 176.146 298.599 176.565 298.599 176.565L282.952 173.51L276.099 162.137L258.894 161.466L252.769 172.199L240.184 173.772L240.174 173.95C238.926 174.044 234.427 175.029 233.525 184.206C233.441 185.05 233.326 186.082 233.179 187.272H305.621C305.605 187.114 305.589 186.968 305.574 186.826Z" fill="#2F2E41"/>
</g>
<defs>
<clipPath id="clip0_32_341">
<rect width="393" height="289" fill="white"/>
</clipPath>
</defs>
</svg>
