<svg width="250" height="37" viewBox="0 0 250 37" fill="none" xmlns="http://www.w3.org/2000/svg">
<path d="M17.096 36.24C14.6 36.24 12.328 35.76 10.28 34.8C8.26401 33.84 6.52001 32.544 5.04801 30.912C3.60801 29.248 2.48801 27.392 1.68801 25.344C0.888007 23.264 0.488007 21.136 0.488007 18.96C0.488007 16.688 0.904007 14.528 1.73601 12.48C2.56801 10.4 3.73601 8.56 5.24001 6.96C6.74401 5.328 8.50401 4.048 10.52 3.12C12.568 2.16 14.808 1.68 17.24 1.68C19.704 1.68 21.944 2.176 23.96 3.168C26.008 4.16 27.752 5.488 29.192 7.152C30.664 8.816 31.784 10.688 32.552 12.768C33.352 14.816 33.752 16.912 33.752 19.056C33.752 21.296 33.336 23.456 32.504 25.536C31.672 27.584 30.504 29.424 29 31.056C27.528 32.656 25.768 33.92 23.72 34.848C21.704 35.776 19.496 36.24 17.096 36.24ZM7.20801 18.96C7.20801 20.944 7.59201 22.8 8.36001 24.528C9.16001 26.256 10.296 27.664 11.768 28.752C13.272 29.84 15.064 30.384 17.144 30.384C19.288 30.384 21.096 29.824 22.568 28.704C24.04 27.584 25.16 26.144 25.928 24.384C26.696 22.624 27.08 20.816 27.08 18.96C27.08 16.976 26.68 15.12 25.88 13.392C25.08 11.664 23.928 10.272 22.424 9.216C20.952 8.128 19.192 7.584 17.144 7.584C15 7.584 13.192 8.144 11.72 9.264C10.248 10.384 9.12801 11.824 8.36001 13.584C7.59201 15.312 7.20801 17.104 7.20801 18.96Z" fill="#6285F6"/>
<path d="M52.9509 16.416C50.9989 16.416 49.2549 16.8 47.7189 17.568C46.1829 18.304 45.0789 19.376 44.4069 20.784V36H37.9749V10.848H43.8789V16.224C44.7429 14.496 45.8629 13.136 47.2389 12.144C48.6469 11.152 50.1189 10.608 51.6549 10.512C52.3269 10.512 52.7589 10.528 52.9509 10.56V16.416Z" fill="#6285F6"/>
<path d="M56.5374 7.344V0.959999H62.9694V7.344H56.5374ZM56.5374 36V10.848H62.9694V36H56.5374Z" fill="#6285F6"/>
<path d="M80.4358 36.48C77.7158 36.48 75.3638 35.888 73.3798 34.704C71.4278 33.52 69.9078 31.952 68.8198 30C67.7318 28.016 67.1878 25.872 67.1878 23.568C67.1878 21.2 67.7158 19.024 68.7718 17.04C69.8598 15.024 71.3958 13.424 73.3798 12.24C75.3638 11.024 77.7318 10.416 80.4838 10.416C83.2358 10.416 85.5878 11.024 87.5398 12.24C89.4918 13.424 90.9798 15.008 92.0038 16.992C93.0598 18.944 93.5878 21.056 93.5878 23.328C93.5878 24.16 93.5398 24.88 93.4438 25.488H74.0038C74.1638 27.44 74.8838 28.976 76.1638 30.096C77.4758 31.216 78.9798 31.776 80.6758 31.776C81.9558 31.776 83.1558 31.472 84.2758 30.864C85.4278 30.224 86.2118 29.392 86.6278 28.368L92.1478 29.904C91.2198 31.824 89.7318 33.408 87.6838 34.656C85.6358 35.872 83.2198 36.48 80.4358 36.48ZM73.8598 21.408H87.0118C86.8198 19.52 86.0998 18 84.8518 16.848C83.6358 15.664 82.1478 15.072 80.3878 15.072C78.6598 15.072 77.1718 15.664 75.9238 16.848C74.7078 18 74.0198 19.52 73.8598 21.408Z" fill="#6285F6"/>
<path d="M120.882 36H114.45V21.888C114.45 19.872 114.098 18.4 113.394 17.472C112.69 16.544 111.714 16.08 110.466 16.08C109.602 16.08 108.722 16.304 107.826 16.752C106.962 17.2 106.178 17.824 105.474 18.624C104.77 19.392 104.258 20.288 103.938 21.312V36H97.5061V10.848H103.314V15.504C104.242 13.936 105.586 12.704 107.346 11.808C109.106 10.88 111.09 10.416 113.298 10.416C114.866 10.416 116.146 10.704 117.138 11.28C118.13 11.824 118.898 12.576 119.442 13.536C119.986 14.464 120.354 15.52 120.546 16.704C120.77 17.888 120.882 19.088 120.882 20.304V36Z" fill="#6285F6"/>
<path d="M135.739 36.48C133.595 36.48 131.547 36.128 129.595 35.424C127.643 34.72 125.963 33.68 124.555 32.304L126.859 28.128C128.363 29.344 129.835 30.24 131.275 30.816C132.715 31.392 134.123 31.68 135.499 31.68C136.747 31.68 137.739 31.456 138.475 31.008C139.243 30.56 139.627 29.888 139.627 28.992C139.627 28.064 139.163 27.44 138.235 27.12C137.307 26.768 136.011 26.336 134.347 25.824C132.491 25.248 130.939 24.656 129.691 24.048C128.443 23.44 127.499 22.704 126.859 21.84C126.251 20.976 125.947 19.856 125.947 18.48C125.947 16.016 126.875 14.048 128.731 12.576C130.587 11.104 133.051 10.368 136.123 10.368C137.915 10.368 139.611 10.656 141.211 11.232C142.811 11.776 144.267 12.672 145.579 13.92L142.987 18C140.523 16.08 138.139 15.12 135.835 15.12C134.811 15.12 133.899 15.312 133.099 15.696C132.331 16.08 131.947 16.752 131.947 17.712C131.947 18.608 132.315 19.248 133.051 19.632C133.819 20.016 134.971 20.432 136.507 20.88C138.491 21.488 140.171 22.08 141.547 22.656C142.955 23.232 144.011 23.968 144.715 24.864C145.451 25.76 145.819 26.976 145.819 28.512C145.819 31.008 144.907 32.96 143.083 34.368C141.259 35.776 138.811 36.48 135.739 36.48Z" fill="#6285F6"/>
<path d="M149.282 18.72C149.282 16.672 149.634 14.64 150.338 12.624C151.074 10.608 152.13 8.784 153.506 7.152C154.882 5.488 156.578 4.176 158.594 3.216C160.61 2.224 162.898 1.728 165.458 1.728C168.466 1.728 171.058 2.432 173.234 3.84C175.41 5.216 177.01 6.992 178.034 9.168L175.394 10.8C174.658 9.296 173.73 8.112 172.61 7.248C171.49 6.352 170.29 5.712 169.01 5.328C167.762 4.944 166.514 4.752 165.266 4.752C163.218 4.752 161.41 5.168 159.842 6C158.274 6.8 156.946 7.888 155.858 9.264C154.802 10.64 154.002 12.16 153.458 13.824C152.914 15.488 152.642 17.184 152.642 18.912C152.642 20.8 152.962 22.608 153.602 24.336C154.242 26.032 155.138 27.552 156.29 28.896C157.442 30.24 158.786 31.312 160.322 32.112C161.89 32.88 163.586 33.264 165.41 33.264C166.69 33.264 168.002 33.04 169.346 32.592C170.69 32.144 171.938 31.456 173.09 30.528C174.242 29.6 175.186 28.4 175.922 26.928L178.706 28.368C177.97 30.064 176.866 31.504 175.394 32.688C173.954 33.872 172.322 34.768 170.498 35.376C168.706 35.984 166.946 36.288 165.218 36.288C162.882 36.288 160.738 35.792 158.786 34.8C156.834 33.776 155.138 32.432 153.698 30.768C152.29 29.072 151.202 27.184 150.434 25.104C149.666 22.992 149.282 20.864 149.282 18.72Z" fill="#6285F6"/>
<path d="M184.444 36V1.92H198.844C200.316 1.92 201.66 2.224 202.876 2.832C204.124 3.44 205.196 4.272 206.092 5.328C206.988 6.352 207.676 7.504 208.156 8.784C208.668 10.032 208.924 11.312 208.924 12.624C208.924 14.288 208.604 15.84 207.964 17.28C207.356 18.72 206.476 19.936 205.324 20.928C204.172 21.92 202.844 22.56 201.34 22.848L209.692 36H205.9L197.884 23.424H187.804V36H184.444ZM187.804 20.448H198.94C200.284 20.448 201.452 20.08 202.444 19.344C203.436 18.576 204.204 17.6 204.748 16.416C205.292 15.232 205.564 13.968 205.564 12.624C205.564 11.248 205.244 9.984 204.604 8.832C203.996 7.648 203.164 6.704 202.108 6C201.052 5.264 199.9 4.896 198.652 4.896H187.804V20.448Z" fill="#6285F6"/>
<path d="M245.995 36V8.256L233.659 29.808H231.547L219.163 8.256V36H215.803V1.92H219.259L232.555 25.248L245.947 1.92H249.355V36H245.995Z" fill="#6285F6"/>
</svg>
